<svg width="68" height="85" viewBox="0 0 68 85" fill="none" xmlns="http://www.w3.org/2000/svg">
<path d="M40.3535 64.0035C40.3535 67.871 37.223 71 33.3535 71C29.4841 71 26.3535 67.871 26.3535 64.0035V44.9965C26.3535 41.129 29.4841 38 33.3535 38C37.223 38 40.3535 41.129 40.3535 44.9965V64.0035Z" fill="white"/>
<path d="M33.3535 73C27.8327 73 23.3535 68.8953 23.3535 63.8359V45.1641C23.3535 40.1047 27.8327 36 33.3535 36C38.8743 36 43.3535 40.1047 43.3535 45.1641V63.8359C43.3535 68.8953 38.8743 73 33.3535 73ZM33.3535 40.582C30.6035 40.582 28.3535 42.644 28.3535 45.1641V63.8359C28.3535 66.356 30.6035 68.418 33.3535 68.418C36.1035 68.418 38.3535 66.356 38.3535 63.8359V45.1641C38.3535 42.644 36.1035 40.582 33.3535 40.582Z" fill="#070707"/>
<path d="M61.2577 29.1538C60.2799 14.5385 48.1635 3 33.3439 3C18.5243 3 6.40795 14.5385 5.4302 29.1538C5.39186 29.1538 5.35352 31.0769 5.35352 31.0769V35.3654V63C24.525 63 27.5925 46.8462 27.5925 46.8462C30.0081 40.3269 28.7044 36.1538 25.7904 33.5C31.2542 31.6923 36.8715 28.5 41.4151 22.9808C43.7157 25.2885 46.1697 27.7308 48.777 29.8462C41.6835 31.4231 34.9927 35.6923 39.1146 46.8269C39.1146 46.8269 42.182 62.9808 61.3535 62.9808V35.3654V31.0769C61.3343 31.0769 61.3152 29.1538 61.2577 29.1538Z" fill="#E7E7E7"/>
<path d="M4.66924 65H2.35352V30.5268C2.35352 30.5268 2.37281 30.0238 2.37281 29.5402C2.37281 29.2887 2.39211 29.0179 2.39211 28.8244C2.39211 28.7083 2.41141 28.5923 2.43071 28.4762C2.95174 20.7574 6.34814 13.5804 11.9831 8.27976C17.6566 2.94048 25.0669 0 32.8439 0C40.6208 0 48.0311 2.94048 53.7047 8.27976C59.2817 13.5223 62.6588 20.6027 63.2377 28.244H63.3535V64.9807H61.0378C50.1346 64.9807 44.0172 60.0863 40.7945 55.9658C37.6876 52 36.6455 48.0149 36.4332 47.0476C34.6 42.0372 34.6193 37.7619 36.4911 34.3378C37.9192 31.7262 40.3314 29.7143 43.7278 28.3214C42.8594 27.5089 41.9717 26.6577 41.084 25.7872C37.7262 29.308 33.7123 32.0744 29.0615 34.0476C30.7211 36.8914 31.493 41.0699 29.2931 47.067C29.0808 48.0342 28.0387 52.0193 24.9318 55.9851C21.6898 60.1057 15.5724 65 4.66924 65ZM6.98496 30.5848V60.2604C21.9986 59.0804 24.6616 46.5446 24.7774 45.9836L24.816 45.8095L24.8739 45.6354C26.7072 40.7024 26.302 37.1429 23.6775 34.744L20.7442 32.0744L24.5073 30.8363C30.4703 28.8631 35.4105 25.5551 39.1735 20.9896L40.7945 19.0164L42.5892 20.8155C45.0979 23.3304 47.3943 25.5938 49.8258 27.567L53.5696 30.6042L48.8802 31.6488C44.6155 32.5967 41.8173 34.2604 40.5437 36.6205C39.3279 38.8452 39.4244 41.8824 40.8331 45.6548L40.9103 45.8289L40.9489 46.0223C41.0647 46.564 43.7278 59.1191 58.7414 60.2991V30.6429C58.7414 30.5848 58.7414 30.5461 58.7414 30.4881C58.7414 30.372 58.7414 30.2173 58.7221 30.0625C58.7221 29.9658 58.7221 29.8304 58.7028 29.6756L58.6449 28.8051C57.7186 15.244 46.3909 4.64286 32.8439 4.64286C19.2969 4.64286 7.96914 15.244 7.06215 28.7857L7.02356 29.3661C7.00426 29.7143 6.98496 30.1786 6.98496 30.5848Z" fill="#070707"/>
<path d="M41.2969 19C33.0328 29.3376 21.0705 31.6154 13.3535 31.8879V39.3637C13.3535 50.7526 22.3158 60 33.3535 60C44.3912 60 53.3535 50.7526 53.3535 39.3637V29.3376C48.9384 26.8846 44.9195 22.7574 41.2969 19Z" fill="white"/>
<path d="M33.2845 60.8174C21.2529 60.8174 11.4785 51.0429 11.4785 39.0114V31.6663C11.4785 30.8438 12.1289 30.1743 12.9514 30.136C21.0234 29.8682 32.3089 27.5346 40.1514 18.028C40.4192 17.7028 40.8209 17.4924 41.2608 17.4733C41.7008 17.4541 42.1216 17.6072 42.4085 17.9132C45.7559 21.2798 49.9067 25.4497 54.2679 27.8024C54.7652 28.0702 55.0713 28.5867 55.0713 29.1414V38.9923C55.0904 51.0429 45.316 60.8174 33.2845 60.8174ZM14.539 33.12V39.0114C14.539 49.3405 22.9553 57.7569 33.2845 57.7569C43.6136 57.7569 52.0299 49.3405 52.0299 39.0114V30.0595C48.0895 27.7641 44.4743 24.302 41.4139 21.2606C33.4183 30.0404 22.7258 32.6227 14.539 33.12Z" fill="#070707"/>
<path d="M22.9575 41.2108C24.2252 41.2108 25.2528 40.1832 25.2528 38.9155C25.2528 37.6478 24.2252 36.6201 22.9575 36.6201C21.6898 36.6201 20.6621 37.6478 20.6621 38.9155C20.6621 40.1832 21.6898 41.2108 22.9575 41.2108Z" fill="#070707"/>
<path d="M44.3793 41.2108C45.647 41.2108 46.6747 40.1832 46.6747 38.9155C46.6747 37.6478 45.647 36.6201 44.3793 36.6201C43.1117 36.6201 42.084 37.6478 42.084 38.9155C42.084 40.1832 43.1117 41.2108 44.3793 41.2108Z" fill="#070707"/>
<path d="M27.5469 46.5664C27.5469 49.7417 30.11 52.6874 33.2853 52.6874C36.4605 52.6874 39.0237 49.7417 39.0237 46.5664H27.5469Z" fill="#070707"/>
<path d="M2.29772 84.0578C2.02993 84.0578 1.74301 84.0004 1.47522 83.9048C0.289283 83.4457 -0.303686 82.1259 0.155387 80.9399C2.90982 73.7096 8.30392 68.5259 15.783 65.9053C21.3301 63.9734 26.0738 64.1455 26.2843 64.1455C27.5467 64.2029 28.5414 65.2741 28.484 66.5365C28.4266 67.799 27.3554 68.7745 26.093 68.7363C26.0547 68.7363 21.9039 68.6024 17.1602 70.2856C11.001 72.4854 6.73542 76.617 4.45919 82.5658C4.09576 83.5031 3.21587 84.0578 2.29772 84.0578Z" fill="#070707"/>
<path d="M65.0565 84.058C64.1383 84.058 63.2584 83.5033 62.9141 82.5852C57.4435 68.2392 41.835 68.7365 41.6629 68.7365C40.4004 68.7747 39.3293 67.7992 39.2719 66.5368C39.2145 65.2743 40.2092 64.2031 41.4716 64.1458C41.6629 64.1458 46.3301 63.9545 51.7816 65.9055C59.1076 68.5261 64.4444 73.7289 67.1988 80.9402C67.6579 82.1261 67.0649 83.4459 65.879 83.905C65.6112 84.0006 65.3243 84.058 65.0565 84.058Z" fill="#070707"/>
</svg>
