<svg width="89" height="106" viewBox="0 0 89 106" fill="none" xmlns="http://www.w3.org/2000/svg">
<path opacity="0.5" d="M44.1489 105.094C68.5317 105.094 88.2978 100.184 88.2978 94.1281C88.2978 88.0718 68.5317 83.1621 44.1489 83.1621C19.7661 83.1621 0 88.0718 0 94.1281C0 100.184 19.7661 105.094 44.1489 105.094Z" fill="#E7E7E7"/>
<path d="M15.309 22.4185L7.98326 87.4865C7.84434 89.4927 9.39558 91.1341 11.433 91.1341H78.9004C80.9379 91.1341 82.4659 89.4927 82.3039 87.4865L73.6283 21.1367" fill="white"/>
<path d="M78.9514 93.9828H11.3628C9.6 93.9828 7.97638 93.4015 6.79347 92.3359C5.61055 91.2703 5.00749 89.8753 5.14666 88.4028L9.50722 33.0093C9.6 31.7305 10.9221 30.7618 12.4761 30.8393C14.0069 30.9168 15.1667 32.0405 15.0739 33.3193L10.6901 88.7128C10.6669 88.9453 10.7829 89.0809 10.8525 89.1584C10.9453 89.2359 11.1076 89.3328 11.3628 89.3328H78.9514C79.1602 89.3328 79.3225 89.2746 79.4385 89.1778C79.5313 89.1003 79.624 88.9646 79.6009 88.7515L74.3357 32.5443C74.2197 31.2655 75.3563 30.1418 76.8871 30.0449C78.4179 29.948 79.7632 30.8974 79.8792 32.1761L85.1443 88.3834C85.2835 89.8365 84.7036 91.2896 83.5207 92.3359C82.3378 93.4015 80.7142 93.9828 78.9514 93.9828Z" fill="#070707"/>
<path d="M28.9817 42.146C24.3763 42.146 20.6504 38.4201 20.6504 33.8147C20.6504 29.2094 24.3763 25.4834 28.9817 25.4834C33.5871 25.4834 37.313 29.2094 37.313 33.8147C37.313 38.4201 33.5871 42.146 28.9817 42.146ZM28.9817 29.1862C26.436 29.1862 24.3532 31.269 24.3532 33.8147C24.3532 36.3604 26.436 38.4432 28.9817 38.4432C31.5274 38.4432 33.6102 36.3604 33.6102 33.8147C33.6102 31.269 31.5274 29.1862 28.9817 29.1862Z" fill="#070707"/>
<path d="M59.6208 42.1215C55.0098 42.1215 51.2793 38.391 51.2793 33.78C51.2793 29.169 55.0098 25.4385 59.6208 25.4385C64.2318 25.4385 67.9623 29.169 67.9623 33.78C67.9623 38.391 64.2318 42.1215 59.6208 42.1215ZM59.6208 29.1458C57.072 29.1458 54.9866 31.2312 54.9866 33.78C54.9866 36.3288 57.072 38.4141 59.6208 38.4141C62.1696 38.4141 64.255 36.3288 64.255 33.78C64.255 31.2312 62.1696 29.1458 59.6208 29.1458Z" fill="#070707"/>
<path opacity="0.2" d="M20.5 20.5L28.5 91.5L6.79102 89.3156L12.6751 27.5451L20.5 20.5Z" fill="#070707"/>
<path d="M77.2311 35.1842C76.1189 35.1842 75.053 34.5123 74.6359 33.4001L70.7201 23.1122C70.6969 23.0891 70.6737 23.0659 70.6506 23.0659H19.8369C19.7674 23.0891 19.6979 23.1354 19.6516 23.1817L14.8784 33.5854C14.2296 34.9757 12.5845 35.6013 11.1942 34.9525C9.80398 34.3037 9.17837 32.6586 9.82715 31.2684L14.6235 20.8183C15.4808 18.9183 17.6589 17.5049 19.7674 17.5049H70.7432C72.9213 17.5049 75.0762 18.9878 75.864 21.0037L79.8262 31.4305C80.3823 32.8671 79.6408 34.4659 78.2274 35.022C77.903 35.1147 77.5555 35.1842 77.2311 35.1842Z" fill="#070707"/>
<path d="M44.3262 0.128523C53.7799 0.128524 61.4727 7.82124 61.4727 17.2749L61.4727 33.0311C61.4727 34.0506 60.6385 34.8848 59.619 34.8848C58.5995 34.8848 57.7653 34.0506 57.7653 33.0311L57.7653 17.2749C57.7653 9.86027 51.7409 3.83586 44.3262 3.83586C36.9116 3.83586 30.8872 9.86027 30.8872 17.2749L30.8872 33.0311C30.8872 34.0506 30.053 34.8848 29.0335 34.8848C28.014 34.8848 27.1798 34.0506 27.1798 33.0311L27.1798 17.2749C27.1798 7.82123 34.8726 0.128522 44.3262 0.128523Z" fill="#070707"/>
</svg>
