<svg width="123" height="71" viewBox="0 0 123 71" fill="none" xmlns="http://www.w3.org/2000/svg">
<path opacity="0.5" d="M76.5 71C99.4198 71 118 66.299 118 60.5C118 54.701 99.4198 50 76.5 50C53.5802 50 35 54.701 35 60.5C35 66.299 53.5802 71 76.5 71Z" fill="#E7E7E7"/>
<path d="M25 16.5349C25 14.5907 26.5833 13 28.5185 13H116.481C118.417 13 120 14.5907 120 16.5349V47.4651C120 49.4093 118.417 51 116.481 51H28.5185C26.5833 51 25 49.4093 25 47.4651V16.5349Z" fill="#E7E7E7"/>
<path d="M116.749 51H27.2511C24.9018 51 23 49.1376 23 46.8371V16.1629C23 13.8624 24.9018 12 27.2511 12H116.749C119.098 12 121 13.8624 121 16.1629V46.8371C121 49.1376 119.098 51 116.749 51ZM27.2511 13.3146C25.6402 13.3146 24.3425 14.5854 24.3425 16.1629V46.8371C24.3425 48.4146 25.6402 49.6854 27.2511 49.6854H116.749C118.36 49.6854 119.658 48.4146 119.658 46.8371V16.1629C119.658 14.5854 118.36 13.3146 116.749 13.3146H27.2511Z" fill="#070707"/>
<path d="M25 41V6.53488C25 4.5907 26.5833 3 28.5185 3H116.481C118.417 3 120 4.5907 120 6.53488V41" fill="#E7E7E7"/>
<path d="M119.687 41.2135C119.313 41.2135 119.026 40.927 119.026 40.5523V6.17175C119.026 4.58496 117.748 3.30671 116.161 3.30671H28.0057C26.4189 3.30671 25.1407 4.58496 25.1407 6.17175V40.5523C25.1407 40.927 24.8542 41.2135 24.4795 41.2135C24.1049 41.2135 23.8184 40.927 23.8184 40.5523V6.17175C23.8184 3.85768 25.6917 1.98438 28.0057 1.98438H116.161C118.475 1.98438 120.348 3.85768 120.348 6.17175V40.5523C120.348 40.927 120.062 41.2135 119.687 41.2135Z" fill="#070707"/>
<path d="M119.688 43.3071H25.2952C24.2594 43.3071 23.4219 42.4697 23.4219 41.4338C23.4219 40.398 24.2594 39.5605 25.2952 39.5605H119.688C120.723 39.5605 121.561 40.398 121.561 41.4338C121.561 42.4697 120.723 43.3071 119.688 43.3071Z" fill="#070707"/>
<path d="M23.9742 62.7793L41.8398 22.7793L1.83984 39.6272L13.2684 42.4241L3.26277 52.2577L11.8455 60.6705L21.8286 50.837L23.9742 62.7793Z" fill="white"/>
<path d="M23.4556 64.4802C23.3895 64.4802 23.3013 64.4802 23.2352 64.4581C22.4198 64.37 21.7586 63.7309 21.6043 62.9154L20.1498 54.6288L12.9431 61.8355C12.5904 62.1881 12.1056 62.3865 11.6207 62.3865C11.1359 62.3865 10.651 62.1881 10.2984 61.8355L1.94568 53.4828C1.2184 52.7555 1.2184 51.5654 1.94568 50.8381L9.35073 43.4111L1.41675 41.4276C0.645391 41.2292 0.0723811 40.568 0.00626455 39.7526C-0.059852 38.9592 0.402964 38.1878 1.13025 37.8793L40.161 21.1518C40.8663 20.8433 41.6817 21.0196 42.2327 21.5485C42.7837 22.0995 42.9159 22.9149 42.6073 23.6202L25.1967 63.3342C24.8661 64.0394 24.2049 64.4802 23.4556 64.4802ZM5.89064 52.1605L11.5987 57.8685L20.0396 49.4277C20.5244 48.9428 21.2517 48.7665 21.9349 48.9648C22.5961 49.1852 23.103 49.7362 23.2132 50.4194L24.2269 56.1715L37.2519 26.4632L7.69782 39.1355L13.45 40.568C14.1111 40.7223 14.618 41.2292 14.7943 41.8904C14.9706 42.5515 14.7943 43.2347 14.3095 43.7196L5.89064 52.1605Z" fill="#070707"/>
<path d="M116.381 52.8932H29.5L31.5 47.6039H116.381C117.02 47.6039 117.042 46.8105 117.042 46.7223V6.39126C117.042 5.79622 116.799 5.28932 116.601 5.28932H28.0049C27.52 5.28932 27.1233 5.68602 27.1233 6.17088L26.5 30L21.834 32.8379V6.17088C21.834 2.77689 24.6109 0 28.0049 0H116.601C119.863 0 122.331 2.75486 122.331 6.39126V46.7223C122.331 50.1824 119.708 52.8932 116.381 52.8932Z" fill="#070707"/>
<path d="M56.592 25.0825H47.512C46.4761 25.0825 45.6387 24.2451 45.6387 23.2092C45.6387 22.1734 46.4761 21.3359 47.512 21.3359H56.592C57.6278 21.3359 58.4653 22.1734 58.4653 23.2092C58.4653 24.2451 57.6278 25.0825 56.592 25.0825Z" fill="#070707"/>
<path fill-rule="evenodd" clip-rule="evenodd" d="M91.8733 24.7866H100.873H100.953H109.953C110.989 24.7866 111.827 23.9492 111.827 22.9133C111.827 21.8775 110.989 21.04 109.953 21.04H100.953H100.873H91.8733C90.8375 21.04 90 21.8775 90 22.9133C90 23.9492 90.8375 24.7866 91.8733 24.7866Z" fill="#070707"/>
<path fill-rule="evenodd" clip-rule="evenodd" d="M102.786 31.9529L102.786 22.9529L102.786 22.8729L102.786 13.8729C102.786 12.837 101.948 11.9996 100.912 11.9996C99.8765 11.9996 99.0391 12.837 99.0391 13.8729L99.0391 22.8729L99.0391 22.9529L99.0391 31.9529C99.0391 32.9887 99.8765 33.8262 100.912 33.8262C101.948 33.8262 102.786 32.9887 102.786 31.9529Z" fill="#070707"/>
<path fill-rule="evenodd" clip-rule="evenodd" d="M95.8454 30.63L102.209 24.266L102.266 24.2094L108.63 17.8455C109.362 17.113 109.362 15.9287 108.63 15.1962C107.897 14.4638 106.713 14.4638 105.981 15.1962L99.6167 21.5602L99.5602 21.6167L93.1962 27.9807C92.4638 28.7131 92.4638 29.8975 93.1962 30.63C93.9286 31.3624 95.113 31.3624 95.8454 30.63Z" fill="#070707"/>
<path fill-rule="evenodd" clip-rule="evenodd" d="M108.629 27.9812L102.265 21.6172L102.209 21.5607L95.8448 15.1967C95.1124 14.4643 93.928 14.4643 93.1956 15.1967C92.4631 15.9292 92.4631 17.1135 93.1956 17.846L99.5595 24.2099L99.6161 24.2665L105.98 30.6305C106.713 31.3629 107.897 31.3629 108.629 30.6305C109.362 29.898 109.362 28.7136 108.629 27.9812Z" fill="#070707"/>
<path fill-rule="evenodd" clip-rule="evenodd" d="M63.8733 24.7866H72.8733H72.9533H81.9533C82.9891 24.7866 83.8266 23.9492 83.8266 22.9133C83.8266 21.8775 82.9891 21.04 81.9533 21.04H72.9533H72.8733H63.8733C62.8375 21.04 62 21.8775 62 22.9133C62 23.9492 62.8375 24.7866 63.8733 24.7866Z" fill="#070707"/>
<path fill-rule="evenodd" clip-rule="evenodd" d="M74.7857 31.9529L74.7857 22.9529L74.7857 22.8729L74.7857 13.8729C74.7857 12.837 73.9482 11.9996 72.9124 11.9996C71.8765 11.9996 71.0391 12.837 71.0391 13.8729L71.0391 22.8729L71.0391 22.9529L71.0391 31.9529C71.0391 32.9887 71.8765 33.8262 72.9124 33.8262C73.9482 33.8262 74.7857 32.9887 74.7857 31.9529Z" fill="#070707"/>
<path fill-rule="evenodd" clip-rule="evenodd" d="M67.8454 30.63L74.2094 24.266L74.266 24.2094L80.6299 17.8455C81.3624 17.113 81.3624 15.9287 80.6299 15.1962C79.8975 14.4638 78.7131 14.4638 77.9807 15.1962L71.6167 21.5602L71.5602 21.6167L65.1962 27.9807C64.4638 28.7131 64.4638 29.8975 65.1962 30.63C65.9286 31.3624 67.113 31.3624 67.8454 30.63Z" fill="#070707"/>
<path fill-rule="evenodd" clip-rule="evenodd" d="M80.6293 27.9812L74.2653 21.6172L74.2088 21.5607L67.8448 15.1967C67.1124 14.4643 65.928 14.4643 65.1956 15.1967C64.4631 15.9292 64.4631 17.1135 65.1956 17.846L71.5595 24.2099L71.6161 24.2665L77.9801 30.6305C78.7125 31.3629 79.8969 31.3629 80.6293 30.6305C81.3618 29.898 81.3618 28.7136 80.6293 27.9812Z" fill="#070707"/>
<path d="M45.5065 19.1544C45.0216 19.1544 44.5368 18.9781 44.1841 18.6034C43.4569 17.8761 43.4569 16.686 44.1841 15.9588L50.5974 9.54546C51.3247 8.81818 52.5148 8.81818 53.2421 9.54546C53.9694 10.2727 53.9694 11.4628 53.2421 12.1901L46.8288 18.6034C46.4541 18.9781 45.9693 19.1544 45.5065 19.1544Z" fill="#070707"/>
<path d="M51.2811 36.9171C50.7962 36.9171 50.3114 36.7408 49.9588 36.3661L43.5455 29.9528C42.8182 29.2255 42.8182 28.0354 43.5455 27.3082C44.2727 26.5809 45.4628 26.5809 46.1901 27.3082L52.6034 33.7215C53.3307 34.4487 53.3307 35.6388 52.6034 36.3661C52.2508 36.7408 51.766 36.9171 51.2811 36.9171Z" fill="#070707"/>
</svg>
