<svg width="119" height="124" viewBox="0 0 119 124" fill="none" xmlns="http://www.w3.org/2000/svg">
<path opacity="0.5" d="M58.7876 123.83C88.7213 123.83 112.987 117.828 112.987 110.425C112.987 103.021 88.7213 97.0195 58.7876 97.0195C28.8539 97.0195 4.58789 103.021 4.58789 110.425C4.58789 117.828 28.8539 123.83 58.7876 123.83Z" fill="#E7E7E7"/>
<path d="M107.973 98.836C107.973 101.338 105.93 103.385 103.434 103.385H14.9144C12.4178 103.385 10.375 101.338 10.375 98.836V31.7448C10.375 29.2431 12.4178 27.1963 14.9144 27.1963H103.434C105.93 27.1963 107.973 29.2431 107.973 31.7448V98.836Z" fill="white"/>
<path d="M103.492 106.856H14.8586C10.4837 106.856 6.9043 103.277 6.9043 98.9031V31.8701C6.9043 27.4959 10.4837 23.917 14.8586 23.917H103.492C107.867 23.917 111.446 27.4959 111.446 31.8701V98.9031C111.446 103.277 107.867 106.856 103.492 106.856ZM14.8586 30.7339C14.2336 30.7339 13.7222 31.2452 13.7222 31.8701V98.9031C13.7222 99.5279 14.2336 100.039 14.8586 100.039H103.492C104.117 100.039 104.628 99.5279 104.628 98.9031V31.8701C104.628 31.2452 104.117 30.7339 103.492 30.7339H14.8586Z" fill="#070707"/>
<path d="M113.345 35.0301C114.14 37.4161 112.721 39.3477 110.223 39.3477H8.01918C5.52087 39.3477 4.18655 37.4161 5.03825 35.0869L14.9747 7.73249C15.8264 5.37484 18.5802 3.47168 21.0785 3.47168H98.4124C100.911 3.47168 103.608 5.40325 104.374 7.7893L113.345 35.0301Z" fill="#E7E7E7"/>
<path d="M110.289 42.6269H7.96492C5.6342 42.6269 3.61613 41.6342 2.42235 39.9325C1.22856 38.2025 0.972748 35.9903 1.76861 33.8065L11.7168 6.49471C13.0527 2.80776 17.0604 0 21.0397 0H98.4653C102.501 0 106.452 2.86448 107.674 6.66488L116.656 33.8349C117.367 35.9903 117.083 38.2309 115.86 39.9325C114.638 41.6342 112.592 42.6269 110.289 42.6269ZM8.306 35.8202H110.119L101.194 8.79197C100.881 7.79933 99.4885 6.80668 98.4653 6.80668H21.0397C19.9596 6.80668 18.51 7.82769 18.1405 8.82033L8.306 35.8202Z" fill="#070707"/>
<path d="M55.7676 80.086L82.4629 53.3906H94.3906L57.1876 90.5937C57.1876 90.5937 54.6316 89.1737 55.7676 80.086Z" fill="white"/>
<path d="M64.7676 90.2935L99.5134 55.7432L101.222 58.5752L69.3244 91.4263L64.7676 90.2935Z" fill="white"/>
<path d="M96.5931 49.9561H54.5449V88.5324H96.5931V49.9561Z" fill="#E7E7E7"/>
<path d="M96.6408 90.8471H54.6914C53.4442 90.8471 52.4238 89.8238 52.4238 88.5731V49.9156C52.4238 48.6649 53.4442 47.6416 54.6914 47.6416H96.6408C97.8879 47.6416 98.9083 48.6649 98.9083 49.9156V88.5731C98.9083 89.8238 97.8879 90.8471 96.6408 90.8471ZM56.9589 86.2991H94.3732V52.1895H56.9589V86.2991Z" fill="#070707"/>
<path d="M44.323 47.6416H21.7559V98.7552H44.323V47.6416Z" fill="#E7E7E7"/>
<path d="M44.3714 101.07H21.7078C20.4613 101.07 19.4414 100.05 19.4414 98.8031V47.7879C19.4414 46.5408 20.4613 45.5205 21.7078 45.5205H44.3714C45.6179 45.5205 46.6377 46.5408 46.6377 47.7879V98.8031C46.6377 100.05 45.6179 101.07 44.3714 101.07ZM23.9741 96.5357H42.105V50.0552H23.9741V96.5357Z" fill="#070707"/>
<path d="M3.43164 37.4189V44.2341H3.63072C3.77292 51.7876 9.94445 57.8644 17.538 57.8644C25.1315 57.8644 30.592 51.7876 30.7342 44.2341C30.8764 51.7876 37.759 57.8644 45.3525 57.8644C52.946 57.8644 59.0323 51.39 59.1745 43.8365C59.3167 51.39 65.5735 57.8644 73.167 57.8644C80.7606 57.8644 87.4725 51.7876 87.6147 44.2341C87.7569 51.7876 93.4165 57.8644 101.01 57.8644C108.604 57.8644 114.775 51.7876 114.917 44.2341V37.4189H3.43164Z" fill="white"/>
<path d="M100.922 60.2062C96.6619 60.2062 92.7144 58.5307 89.8177 55.5203C88.8805 54.5548 88.0853 53.4756 87.4321 52.3112C86.6937 53.504 85.7566 54.6116 84.7058 55.6055C81.5251 58.5875 77.4356 60.2062 73.1473 60.2062C68.8874 60.2062 64.8263 58.4739 61.7591 55.3499C60.7652 54.3276 59.9132 53.22 59.2032 52.0272C56.3917 56.9119 51.223 60.2062 45.3727 60.2062C39.4089 60.2062 33.9846 56.9971 30.9743 52.3112C28.3332 57.1107 23.4201 60.2062 17.5982 60.2062C13.3383 60.2062 9.30564 58.5591 6.26691 55.5771C3.48378 52.8224 1.80822 49.2157 1.49583 45.3534C1.32543 45.041 1.24023 44.7002 1.24023 44.3026V37.4868C1.24023 36.2372 2.26261 35.2148 3.51218 35.2148H114.837C116.087 35.2148 117.109 36.2372 117.109 37.4868V44.3026C117.109 44.4162 117.109 44.5014 117.081 44.615C116.939 48.7613 115.235 52.652 112.253 55.5771C109.214 58.5591 105.21 60.2062 100.922 60.2062ZM87.5741 42.0307C88.8237 42.0307 89.8177 43.0247 89.8461 44.2742C89.9597 50.7777 94.7307 55.6623 100.95 55.6623C107.226 55.6623 112.452 50.5505 112.566 44.2742C112.566 44.2174 112.566 44.1322 112.566 44.0754V39.7587H5.78412V43.3654C5.89772 43.6494 5.98292 43.9334 5.98292 44.2742C6.09652 50.5505 11.2936 55.6623 17.5982 55.6623C23.7041 55.6623 28.39 50.7493 28.5036 44.2742C28.532 43.0247 29.5259 42.0307 30.7755 42.0307C32.0251 42.0307 33.0191 43.0247 33.0475 44.2742C33.1611 50.4653 38.8125 55.6623 45.3727 55.6623C51.6206 55.6623 56.7893 50.3801 56.9029 43.8766C56.9313 42.6271 57.9252 41.6331 59.1748 41.6331C60.4244 41.6331 61.4184 42.6271 61.4468 43.8766C61.5604 50.2665 66.9278 55.6623 73.1473 55.6623C79.6223 55.6623 85.1886 50.4369 85.3022 44.2742C85.3306 43.0247 86.3245 42.0307 87.5741 42.0307Z" fill="#070707"/>
<path d="M59.1743 45.7511C57.9247 45.7511 56.9023 44.7287 56.9023 43.4791V3.40769C56.9023 2.15812 57.9247 1.13574 59.1743 1.13574C60.4239 1.13574 61.4462 2.15812 61.4462 3.40769V43.4791C61.4462 44.7571 60.4239 45.7511 59.1743 45.7511Z" fill="#070707"/>
<path d="M87.5753 46.8302C86.3257 46.8302 85.3034 45.8078 85.3034 44.5583V36.5497L77.4084 3.94727C77.1244 2.7261 77.8627 1.50493 79.0839 1.19253C80.3051 0.90854 81.5263 1.64692 81.8386 2.86809L89.7905 35.7261C89.8189 35.8965 89.8472 36.0669 89.8472 36.2657V44.5299C89.8472 45.8078 88.8249 46.8302 87.5753 46.8302Z" fill="#070707"/>
<path d="M30.7759 49.9827C29.5263 49.9827 28.5039 48.9603 28.5039 47.7108V36.2658C28.5039 36.067 28.5323 35.8682 28.5891 35.6695L37.6769 2.81146C38.0177 1.59029 39.2672 0.880304 40.46 1.2211C41.6812 1.56189 42.3912 2.81146 42.0504 4.00423L33.0478 36.5782V47.7108C33.0478 48.9603 32.0254 49.9827 30.7759 49.9827Z" fill="#070707"/>
<path d="M114.917 98.7559H3.43164V111.293H114.917V98.7559Z" fill="white"/>
<path d="M114.837 113.597H3.51218C2.26261 113.597 1.24023 112.575 1.24023 111.325V98.8296C1.24023 97.58 2.26261 96.5576 3.51218 96.5576H114.837C116.087 96.5576 117.109 97.58 117.109 98.8296V111.325C117.109 112.575 116.087 113.597 114.837 113.597ZM5.78412 109.053H112.566V101.102H5.78412V109.053Z" fill="#070707"/>
<path d="M114.837 113.626H3.51143C1.63708 113.626 0.103516 112.092 0.103516 110.218V97.722C0.103516 95.8477 1.63708 94.3141 3.51143 94.3141H6.91935V59.0138C3.11384 55.7194 0.415908 49.926 0.302311 44.3881L0.103516 37.6007C0.103516 37.1463 0.160314 36.6919 0.33071 36.2943L11.7756 6.47504C13.1388 2.78313 17.1431 0 21.0622 0H98.4503C102.426 0 106.374 2.83993 107.652 6.61704L118.046 36.3511C118.159 36.7203 118.245 37.0895 118.245 37.4871V44.3029C118.245 44.3313 118.245 44.3597 118.245 44.3881C118.103 50.0964 115.376 55.8614 111.429 59.1274V94.3141H114.837C116.711 94.3141 118.245 95.8477 118.245 97.722V110.218C118.245 112.092 116.711 113.626 114.837 113.626ZM6.91935 106.81H111.429V101.13H108.021C106.147 101.13 104.613 99.5964 104.613 97.722V57.3666C104.613 56.1738 105.238 55.0663 106.289 54.4415C109.072 52.7943 111.344 48.3072 111.429 44.2745V38.0551L101.205 8.83218C101.205 8.80379 101.205 8.80379 101.177 8.77539C100.836 7.78141 99.4727 6.78743 98.4503 6.78743H21.0622C20.0114 6.78743 18.5063 7.83821 18.1655 8.80379C18.1655 8.83218 18.1655 8.83218 18.1371 8.86058L6.94775 38.0835L7.11814 44.2177V44.2461C7.17494 48.2504 9.39009 52.7091 12.1164 54.4131C13.1104 55.0379 13.7352 56.117 13.7352 57.3098V97.722C13.7352 99.5964 12.2016 101.13 10.3273 101.13H6.91935V106.81Z" fill="#070707"/>
<path d="M37.5903 77.246C38.8451 77.246 39.8622 76.2289 39.8622 74.9741C39.8622 73.7193 38.8451 72.7021 37.5903 72.7021C36.3355 72.7021 35.3184 73.7193 35.3184 74.9741C35.3184 76.2289 36.3355 77.246 37.5903 77.246Z" fill="#070707"/>
</svg>
