<svg width="86" height="91" viewBox="0 0 86 91" fill="none" xmlns="http://www.w3.org/2000/svg">
<path opacity="0.5" d="M42.8465 90.5843C64.5682 90.5843 82.1771 86.229 82.1771 80.8566C82.1771 75.4841 64.5682 71.1289 42.8465 71.1289C21.1248 71.1289 3.51587 75.4841 3.51587 80.8566C3.51587 86.229 21.1248 90.5843 42.8465 90.5843Z" fill="#E7E7E7"/>
<path d="M78.538 72.4471C78.538 74.2624 77.0556 75.7478 75.2439 75.7478H11.0089C9.19719 75.7478 7.71484 74.2624 7.71484 72.4471V23.7616C7.71484 21.9463 9.19719 20.4609 11.0089 20.4609H75.2439C77.0556 20.4609 78.538 21.9463 78.538 23.7616V72.4471Z" fill="white"/>
<path d="M75.2856 78.2677H10.9679C7.79325 78.2677 5.1958 75.6706 5.1958 72.4965V23.8533C5.1958 20.6791 7.79325 18.082 10.9679 18.082H75.2856C78.4603 18.082 81.0577 20.6791 81.0577 23.8533V72.4965C81.0577 75.6706 78.4603 78.2677 75.2856 78.2677ZM10.9679 23.0288C10.5144 23.0288 10.1433 23.3998 10.1433 23.8533V72.4965C10.1433 72.9499 10.5144 73.3209 10.9679 73.3209H75.2856C75.7391 73.3209 76.1102 72.9499 76.1102 72.4965V23.8533C76.1102 23.3998 75.7391 23.0288 75.2856 23.0288H10.9679Z" fill="#070707"/>
<path d="M82.4365 26.1458C83.0134 27.8773 81.9833 29.2789 80.1704 29.2789H6.0054C4.19248 29.2789 3.22421 27.8773 3.84225 26.187L11.0527 6.33702C11.6708 4.62617 13.6691 3.24512 15.482 3.24512H71.6002C73.4131 3.24512 75.3702 4.64678 75.9265 6.37824L82.4365 26.1458Z" fill="#E7E7E7"/>
<path d="M80.2179 31.6582H5.96505C4.27373 31.6582 2.8093 30.9379 1.94302 29.7031C1.07674 28.4476 0.891104 26.8424 1.46863 25.2576L8.68765 5.43854C9.65706 2.76306 12.5653 0.725586 15.4529 0.725586H71.6376C74.5664 0.725586 77.4334 2.80423 78.3203 5.56202L84.8381 25.2782C85.3537 26.8424 85.1474 28.4682 84.2605 29.7031C83.3736 30.9379 81.8886 31.6582 80.2179 31.6582ZM6.21256 26.7189H80.0941L73.6176 7.10557C73.3907 6.38525 72.3801 5.66493 71.6376 5.66493H15.4529C14.6691 5.66493 13.6172 6.40583 13.3491 7.12615L6.21256 26.7189Z" fill="#070707"/>
<path d="M40.6536 58.8405L60.0253 39.4688H68.6808L41.684 66.4656C41.684 66.4656 39.8292 65.4352 40.6536 58.8405Z" fill="white"/>
<path d="M47.1855 66.2476L72.3992 41.1758L73.6392 43.2308L50.4923 67.0696L47.1855 66.2476Z" fill="white"/>
<path d="M70.2798 36.9775H39.7671V64.9709H70.2798V36.9775Z" fill="#E7E7E7"/>
<path d="M70.314 66.6494H39.873C38.968 66.6494 38.2275 65.9068 38.2275 64.9993V36.947C38.2275 36.0394 38.968 35.2969 39.873 35.2969H70.314C71.219 35.2969 71.9595 36.0394 71.9595 36.947V64.9993C71.9595 65.9068 71.219 66.6494 70.314 66.6494ZM41.5185 63.3491H68.6686V38.5971H41.5185V63.3491Z" fill="#070707"/>
<path d="M32.3492 35.2969H15.9731V72.388H32.3492V35.2969Z" fill="#E7E7E7"/>
<path d="M32.3841 74.0682H15.9381C15.0335 74.0682 14.2935 73.3278 14.2935 72.4229V35.4031C14.2935 34.4982 15.0335 33.7578 15.9381 33.7578H32.3841C33.2887 33.7578 34.0288 34.4982 34.0288 35.4031V72.4229C34.0288 73.3278 33.2887 74.0682 32.3841 74.0682ZM17.5827 70.7776H30.7395V37.0485H17.5827V70.7776Z" fill="#070707"/>
<path d="M2.67603 27.8789V32.8244H2.82049C2.92368 38.3056 7.40211 42.7154 12.9124 42.7154C18.4228 42.7154 22.3853 38.3056 22.4884 32.8244C22.5916 38.3056 27.586 42.7154 33.0963 42.7154C38.6067 42.7154 43.0232 38.0172 43.1264 32.5359C43.2296 38.0172 47.7699 42.7154 53.2802 42.7154C58.7906 42.7154 63.6611 38.3056 63.7643 32.8244C63.8675 38.3056 67.9745 42.7154 73.4848 42.7154C78.9951 42.7154 83.4735 38.3056 83.5767 32.8244V27.8789H2.67603Z" fill="white"/>
<path d="M73.4207 44.4155C70.3294 44.4155 67.4649 43.1996 65.3629 41.0152C64.6828 40.3145 64.1057 39.5314 63.6318 38.6864C63.0959 39.552 62.4159 40.3557 61.6534 41.077C59.3452 43.2409 56.3776 44.4155 53.2658 44.4155C50.1746 44.4155 47.2276 43.1584 45.0019 40.8915C44.2806 40.1496 43.6623 39.3459 43.1471 38.4804C41.1069 42.025 37.3562 44.4155 33.1109 44.4155C28.7832 44.4155 24.847 42.0868 22.6625 38.6864C20.746 42.1692 17.1807 44.4155 12.956 44.4155C9.86481 44.4155 6.93844 43.2203 4.73336 41.0564C2.71375 39.0574 1.49786 36.4401 1.27117 33.6374C1.14752 33.4107 1.08569 33.1634 1.08569 32.8749V27.9289C1.08569 27.0222 1.82759 26.2803 2.73435 26.2803H83.5187C84.4255 26.2803 85.1674 27.0222 85.1674 27.9289V32.8749C85.1674 32.9573 85.1674 33.0192 85.1468 33.1016C85.0437 36.1104 83.8072 38.9337 81.6434 41.0564C79.4383 43.2203 76.5325 44.4155 73.4207 44.4155ZM63.7348 31.2263C64.6416 31.2263 65.3628 31.9475 65.3835 32.8543C65.4659 37.5736 68.9281 41.1182 73.4413 41.1182C77.9957 41.1182 81.7876 37.4087 81.8701 32.8543C81.8701 32.8131 81.8701 32.7513 81.8701 32.71V29.5776H4.38301V32.1948C4.46545 32.4009 4.52727 32.607 4.52727 32.8543C4.60971 37.4087 8.38102 41.1182 12.956 41.1182C17.3868 41.1182 20.7872 37.553 20.8696 32.8543C20.8902 31.9475 21.6115 31.2263 22.5183 31.2263C23.425 31.2263 24.1463 31.9475 24.1669 32.8543C24.2494 37.3469 28.3504 41.1182 33.1109 41.1182C37.6447 41.1182 41.3954 37.2851 41.4779 32.5658C41.4985 31.659 42.2198 30.9377 43.1265 30.9377C44.0333 30.9377 44.7546 31.659 44.7752 32.5658C44.8576 37.2026 48.7526 41.1182 53.2658 41.1182C57.9645 41.1182 62.0037 37.3263 62.0861 32.8543C62.1067 31.9475 62.828 31.2263 63.7348 31.2263Z" fill="#070707"/>
<path d="M43.1267 33.9263C42.2199 33.9263 41.478 33.1845 41.478 32.2777V3.19944C41.478 2.29268 42.2199 1.55078 43.1267 1.55078C44.0335 1.55078 44.7753 2.29268 44.7753 3.19944V32.2777C44.7753 33.2051 44.0335 33.9263 43.1267 33.9263Z" fill="#070707"/>
<path d="M63.7345 34.7094C62.8278 34.7094 62.0859 33.9675 62.0859 33.0607V27.2492L56.3568 3.5909C56.1507 2.70474 56.6865 1.81859 57.5727 1.5919C58.4588 1.38581 59.345 1.92163 59.5717 2.80778L65.342 26.6515C65.3626 26.7752 65.3832 26.8988 65.3832 27.0431V33.0401C65.3832 33.9675 64.6413 34.7094 63.7345 34.7094Z" fill="#070707"/>
<path d="M22.5178 36.9971C21.611 36.9971 20.8691 36.2552 20.8691 35.3484V27.0433C20.8691 26.899 20.8897 26.7548 20.931 26.6105L27.5256 2.76678C27.7729 1.88063 28.6797 1.36542 29.5452 1.61272C30.4314 1.86002 30.9466 2.76678 30.6993 3.63233L24.1665 27.27V35.3484C24.1665 36.2552 23.4246 36.9971 22.5178 36.9971Z" fill="#070707"/>
<path d="M83.5767 72.3887H2.67603V81.4865H83.5767V72.3887Z" fill="white"/>
<path d="M83.5187 83.1589H2.73435C1.82759 83.1589 1.08569 82.417 1.08569 81.5102V72.4426C1.08569 71.5358 1.82759 70.7939 2.73435 70.7939H83.5187C84.4255 70.7939 85.1674 71.5358 85.1674 72.4426V81.5102C85.1674 82.417 84.4255 83.1589 83.5187 83.1589ZM4.38301 79.8616H81.8701V74.0913H4.38301V79.8616Z" fill="#070707"/>
<path d="M83.5186 83.1792H2.73422C1.37408 83.1792 0.26123 82.0664 0.26123 80.7062V71.6386C0.26123 70.2785 1.37408 69.1656 2.73422 69.1656H5.20721V43.5495C2.44571 41.159 0.487921 36.9549 0.405488 32.9363L0.26123 28.0109C0.26123 27.6812 0.302447 27.3515 0.426097 27.0629L8.73122 5.42427C9.72042 2.74519 12.6262 0.725586 15.4701 0.725586H71.6276C74.5128 0.725586 77.3773 2.78641 78.3047 5.52731L85.8473 27.1042C85.9297 27.3721 85.9916 27.64 85.9916 27.9285V32.8745C85.9916 32.8951 85.9916 32.9157 85.9916 32.9363C85.8885 37.0785 83.9101 41.262 81.0456 43.632V69.1656H83.5186C84.8787 69.1656 85.9916 70.2785 85.9916 71.6386V80.7062C85.9916 82.0664 84.8787 83.1792 83.5186 83.1792ZM5.20721 78.2332H81.0456V74.1116H78.5726C77.2125 74.1116 76.0996 72.9987 76.0996 71.6386V42.3543C76.0996 41.4887 76.553 40.685 77.3155 40.2316C79.3351 39.0363 80.9838 35.7802 81.0456 32.8539V28.3406L73.6266 7.13475C73.6266 7.11415 73.6266 7.11414 73.606 7.09354C73.3587 6.37225 72.3695 5.65096 71.6276 5.65096H15.4701C14.7076 5.65096 13.6154 6.41346 13.3681 7.11415C13.3681 7.13475 13.3681 7.13475 13.3475 7.15536L5.22782 28.3613L5.35147 32.8126V32.8332C5.39269 35.739 7.00013 38.9745 8.97852 40.211C9.69981 40.6644 10.1532 41.4475 10.1532 42.313V71.6386C10.1532 72.9987 9.04035 74.1116 7.6802 74.1116H5.20721V78.2332Z" fill="#070707"/>
<path d="M27.4641 56.7797C28.3746 56.7797 29.1128 56.0416 29.1128 55.1311C29.1128 54.2206 28.3746 53.4824 27.4641 53.4824C26.5536 53.4824 25.8154 54.2206 25.8154 55.1311C25.8154 56.0416 26.5536 56.7797 27.4641 56.7797Z" fill="#070707"/>
</svg>
