<svg width="103" height="103" viewBox="0 0 103 103" fill="none" xmlns="http://www.w3.org/2000/svg">
<path opacity="0.5" d="M47.1059 102.7C71.4019 102.7 91.0977 97.8127 91.0977 91.7833C91.0977 85.754 71.4019 80.8662 47.1059 80.8662C22.8098 80.8662 3.11401 85.754 3.11401 91.7833C3.11401 97.8127 22.8098 102.7 47.1059 102.7Z" fill="#E7E7E7"/>
<path d="M100.316 9.70339L96.8982 4.6159C96.3215 3.76799 95.0397 3.07227 94.0143 3.07227H44.7958C43.7917 3.07227 42.4459 3.72451 41.805 4.52894L37.7249 9.70339" fill="white"/>
<path d="M100.319 12.291C99.5051 12.291 98.6913 11.9011 98.1987 11.1645L94.7718 6.09524C94.6433 5.94359 94.1936 5.70529 94.0008 5.68363H44.6545C44.3975 5.68363 43.8192 5.96525 43.6478 6.16023L39.5571 11.3162C38.6789 12.4427 37.0512 12.616 35.9375 11.7061C34.8238 10.7962 34.6524 9.17146 35.552 8.04496L39.6641 2.91069C40.7779 1.50256 42.8768 0.484375 44.6759 0.484375H94.0222C95.8856 0.484375 97.9845 1.61088 99.034 3.14899L102.461 8.21826C103.253 9.40976 102.953 11.0129 101.797 11.8361C101.326 12.161 100.812 12.291 100.319 12.291Z" fill="#070707"/>
<path d="M37.7249 9.70312V52.09H73.6134L89.2719 67.7659V52.09H100.316V9.70312" fill="#E7E7E7"/>
<path d="M89.2472 70.3609C88.5832 70.3609 87.9193 70.1039 87.4267 69.6113L72.499 54.6835H37.5676C36.1541 54.6835 34.9976 53.527 34.9976 52.1135V9.6433C34.9976 8.22977 36.1541 7.07324 37.5676 7.07324C38.9811 7.07324 40.1377 8.22977 40.1377 9.6433V49.522H73.5484C74.2338 49.522 74.8763 49.8004 75.3689 50.2716L86.6771 61.5799V52.0921C86.6771 50.6785 87.8336 49.522 89.2472 49.522H97.7498V9.6433C97.7498 8.22977 98.9063 7.07324 100.32 7.07324C101.733 7.07324 102.89 8.22977 102.89 9.6433V52.0921C102.89 53.5056 101.733 54.6621 100.32 54.6621H91.8172V67.7694C91.8172 68.8189 91.1961 69.7398 90.2324 70.1467C89.9111 70.2966 89.5684 70.3609 89.2472 70.3609Z" fill="#070707"/>
<path d="M56.0289 35.4713C52.9876 35.4713 50.5247 33.0083 50.5247 29.9671C50.5247 26.9259 52.9876 24.4629 56.0289 24.4629C59.0701 24.4629 61.5331 26.9259 61.5331 29.9671C61.5331 33.0083 59.0701 35.4713 56.0289 35.4713ZM56.0289 28.0824C55.0008 28.0824 54.1656 28.9177 54.1656 29.9457C54.1656 30.9737 55.0008 31.809 56.0289 31.809C57.0569 31.809 57.8922 30.9737 57.8922 29.9457C57.8922 28.9177 57.0569 28.0824 56.0289 28.0824Z" fill="#070707"/>
<path d="M69.8641 35.4713C66.8228 35.4713 64.3599 33.0083 64.3599 29.9671C64.3599 26.9259 66.8228 24.4629 69.8641 24.4629C72.9053 24.4629 75.3683 26.9259 75.3683 29.9671C75.3683 33.0083 72.9053 35.4713 69.8641 35.4713ZM69.8641 28.0824C68.836 28.0824 68.0008 28.9177 68.0008 29.9457C68.0008 30.9737 68.836 31.809 69.8641 31.809C70.8921 31.809 71.7274 30.9737 71.7274 29.9457C71.7274 28.9177 70.8921 28.0824 69.8641 28.0824Z" fill="#070707"/>
<path d="M83.6998 35.4713C80.6585 35.4713 78.1956 33.0083 78.1956 29.9671C78.1956 26.9259 80.6585 24.4629 83.6998 24.4629C86.741 24.4629 89.204 26.9259 89.204 29.9671C89.204 33.0083 86.741 35.4713 83.6998 35.4713ZM83.6998 28.0824C82.6717 28.0824 81.8365 28.9177 81.8365 29.9457C81.8365 30.9737 82.6717 31.809 83.6998 31.809C84.7278 31.809 85.5631 30.9737 85.5631 29.9457C85.5631 28.9177 84.7492 28.0824 83.6998 28.0824Z" fill="#070707"/>
<path d="M99.3984 13.1343H38.488C37.0745 13.1343 35.918 11.9777 35.918 10.5642C35.918 9.15067 37.0745 7.99414 38.488 7.99414H99.3984C100.812 7.99414 101.968 9.15067 101.968 10.5642C101.968 11.9777 100.812 13.1343 99.3984 13.1343Z" fill="#070707"/>
<path d="M3.4375 37.1979L6.85546 32.2345C7.43224 31.4073 8.71397 30.7285 9.73936 30.7285H58.9579C59.962 30.7285 61.3078 31.3649 61.9487 32.1497L66.0288 37.1979" fill="#E7E7E7"/>
<path d="M3.42908 39.6208C2.93631 39.6208 2.42212 39.4734 1.9722 39.1785C0.793847 38.3992 0.493902 36.8195 1.30804 35.661L4.73598 30.7323C5.78579 29.2158 7.8854 28.1416 9.74934 28.1416H59.1117C60.8899 28.1416 63.011 29.1316 64.125 30.5006L68.2172 35.5136C69.0956 36.6089 68.9242 38.1886 67.8315 39.0732C66.7174 39.9368 65.1106 39.7683 64.2108 38.6941L60.1186 33.6811C59.9473 33.4916 59.3688 33.2177 59.1117 33.2177H9.74934C9.55652 33.2388 9.1066 33.4705 8.97805 33.6179L5.55011 38.5256C5.05735 39.2417 4.24321 39.6208 3.42908 39.6208Z" fill="#070707"/>
<path d="M66.0288 37.1982V79.6008H30.1403L14.4818 95.261V79.6008H3.4375V37.1982" fill="white"/>
<path d="M14.5006 97.8815C14.1794 97.8815 13.8367 97.8172 13.5154 97.6887C12.5517 97.2818 11.9306 96.3609 11.9306 95.3114V82.2041H3.42797C2.01444 82.2041 0.85791 81.0476 0.85791 79.6341V37.1853C0.85791 35.7718 2.01444 34.6152 3.42797 34.6152C4.8415 34.6152 5.99802 35.7718 5.99802 37.1853V77.064H14.5006C15.9142 77.064 17.0707 78.2205 17.0707 79.6341V89.1219L28.3789 77.8136C28.8715 77.321 29.514 77.064 30.1994 77.064H63.6101V37.1853C63.6101 35.7718 64.7667 34.6152 66.1802 34.6152C67.5937 34.6152 68.7502 35.7718 68.7502 37.1853V79.6341C68.7502 81.0476 67.5937 82.2041 66.1802 82.2041H31.2488L16.3211 97.1319C15.8285 97.6245 15.1646 97.8815 14.5006 97.8815Z" fill="#070707"/>
<path d="M20.991 63.9332C17.9498 63.9332 15.4868 61.4702 15.4868 58.429C15.4868 55.3878 17.9498 52.9248 20.991 52.9248C24.0323 52.9248 26.4952 55.3878 26.4952 58.429C26.4952 61.4702 24.0323 63.9332 20.991 63.9332ZM20.991 56.5443C19.963 56.5443 19.1277 57.3796 19.1277 58.4076C19.1277 59.4356 19.963 60.2709 20.991 60.2709C22.019 60.2709 22.8543 59.4356 22.8543 58.4076C22.8543 57.3796 22.019 56.5443 20.991 56.5443Z" fill="#070707"/>
<path d="M34.8265 63.9332C31.7852 63.9332 29.3223 61.4702 29.3223 58.429C29.3223 55.3878 31.7852 52.9248 34.8265 52.9248C37.8677 52.9248 40.3307 55.3878 40.3307 58.429C40.3307 61.4702 37.8677 63.9332 34.8265 63.9332ZM34.8265 56.5443C33.7985 56.5443 32.9632 57.3796 32.9632 58.4076C32.9632 59.4356 33.7985 60.2709 34.8265 60.2709C35.8545 60.2709 36.6898 59.4356 36.6898 58.4076C36.6898 57.3796 35.8545 56.5443 34.8265 56.5443Z" fill="#070707"/>
<path d="M48.6619 63.9332C45.6207 63.9332 43.1577 61.4702 43.1577 58.429C43.1577 55.3878 45.6207 52.9248 48.6619 52.9248C51.7032 52.9248 54.1661 55.3878 54.1661 58.429C54.1661 61.4702 51.7032 63.9332 48.6619 63.9332ZM48.6619 56.5443C47.6339 56.5443 46.7986 57.3796 46.7986 58.4076C46.7986 59.4356 47.6339 60.2709 48.6619 60.2709C49.6899 60.2709 50.5252 59.4356 50.5252 58.4076C50.5252 57.3796 49.7114 56.5443 48.6619 56.5443Z" fill="#070707"/>
<path d="M65.2594 39.927H4.34902C3.34242 39.927 2.52856 39.1132 2.52856 38.1066C2.52856 37.1 3.34242 36.2861 4.34902 36.2861H65.2594C66.266 36.2861 67.0798 37.1 67.0798 38.1066C67.0798 39.1132 66.266 39.927 65.2594 39.927Z" fill="#070707"/>
</svg>
