<svg width="120" height="89" viewBox="0 0 120 89" fill="none" xmlns="http://www.w3.org/2000/svg">
<path d="M24.4644 17.5862V62.4435H85.2087H89.8814H111.376V61.509H115.114V40.9494H111.376V19.4552H89.8814V13.0537" fill="white"/>
<path d="M90.8159 19.4561V63.0985H116.983C116.983 62.7948 116.983 62.8182 116.983 62.8182V46.5574L111.376 27.8668H90.8159" fill="white"/>
<path d="M116.882 65.1492H90.8919C89.8013 65.1492 88.9194 64.258 88.9194 63.1557V19.3451C88.9194 18.2428 89.8013 17.3516 90.8919 17.3516C91.9826 17.3516 92.8644 18.2428 92.8644 19.3451V25.7947H111.313C112.195 25.7947 112.961 26.381 113.193 27.2254L118.762 45.9879C118.809 46.1756 118.855 46.3632 118.855 46.5508V62.8742C118.855 62.9681 118.855 63.0853 118.855 63.2026C118.832 64.2814 117.95 65.1492 116.882 65.1492ZM115.467 64.2814C115.653 64.4925 115.908 64.6567 116.186 64.7505C115.908 64.6332 115.676 64.4691 115.467 64.2814ZM114.91 63.0853C114.933 63.2964 114.98 63.484 115.072 63.6951C115.003 63.5075 114.933 63.2964 114.91 63.0853ZM92.8644 61.1622H114.91V46.8557L109.851 29.8052H92.8644V61.1622Z" fill="#070707"/>
<path opacity="0.5" d="M67.1707 88.6339C91.7874 88.6339 111.743 83.6727 111.743 77.5528C111.743 71.4329 91.7874 66.4717 67.1707 66.4717C42.554 66.4717 22.5981 71.4329 22.5981 77.5528C22.5981 83.6727 42.554 88.6339 67.1707 88.6339Z" fill="#E7E7E7"/>
<path d="M32.8745 66.1823H28.2019C24.6039 66.1823 21.6602 63.2385 21.6602 59.6406V17.5868C21.6602 16.0448 22.9218 14.7832 24.4637 14.7832C26.0057 14.7832 27.2673 16.0448 27.2673 17.5868V59.6406C27.2673 60.1546 27.6879 60.5751 28.2019 60.5751H32.8745C34.4165 60.5751 35.6781 61.8367 35.6781 63.3787C35.6781 64.9207 34.4165 66.1823 32.8745 66.1823Z" fill="#070707"/>
<path d="M116.982 66.1823H99.9505V60.5751H114.179V45.1321L106.539 21.3249H91.2827V15.7178H108.571C109.786 15.7178 110.861 16.5121 111.235 17.6569L119.646 43.8237C119.739 44.1041 119.786 44.3844 119.786 44.6882V63.3787C119.786 64.9207 118.524 66.1823 116.982 66.1823Z" fill="#070707"/>
<path d="M80.5354 60.5752H52.4995V66.1824H80.5354V60.5752Z" fill="#070707"/>
<path d="M16.9875 40.9509H2.9696C1.42763 40.9509 0.166016 39.6893 0.166016 38.1473C0.166016 36.6054 1.42763 35.3438 2.9696 35.3438H16.9875C18.5295 35.3438 19.7911 36.6054 19.7911 38.1473C19.7911 39.6893 18.5295 40.9509 16.9875 40.9509Z" fill="#070707"/>
<path d="M16.988 28.8015H7.7362C6.19423 28.8015 4.93262 27.5399 4.93262 25.9979C4.93262 24.4559 6.19423 23.1943 7.7362 23.1943H16.988C18.53 23.1943 19.7916 24.4559 19.7916 25.9979C19.7916 27.5399 18.53 28.8015 16.988 28.8015Z" fill="#070707"/>
<path d="M16.988 53.0994H7.7362C6.19423 53.0994 4.93262 51.8377 4.93262 50.2958C4.93262 48.7538 6.19423 47.4922 7.7362 47.4922H16.988C18.53 47.4922 19.7916 48.7538 19.7916 50.2958C19.7916 51.8377 18.53 53.0994 16.988 53.0994Z" fill="#070707"/>
<path d="M44.2643 73.9143C50.0188 73.9143 54.6838 69.2493 54.6838 63.4948C54.6838 57.7402 50.0188 53.0752 44.2643 53.0752C38.5097 53.0752 33.8447 57.7402 33.8447 63.4948C33.8447 69.2493 38.5097 73.9143 44.2643 73.9143Z" fill="#E7E7E7"/>
<path d="M44.2646 75.8993C37.4176 75.8993 31.8604 70.3186 31.8604 63.4951C31.8604 56.6716 37.4411 51.0908 44.2646 51.0908C51.1115 51.0908 56.6688 56.6716 56.6688 63.4951C56.6688 70.3186 51.1115 75.8993 44.2646 75.8993ZM44.2646 55.0536C39.6218 55.0536 35.8466 58.8288 35.8466 63.4716C35.8466 68.1144 39.6218 71.8896 44.2646 71.8896C48.9074 71.8896 52.6826 68.1144 52.6826 63.4716C52.6826 58.8288 48.9308 55.0536 44.2646 55.0536Z" fill="#070707"/>
<path d="M55.1802 63.3301C55.1802 69.6213 50.4355 74.2458 44.2257 74.2458C37.9925 74.2458 32.8525 69.6213 32.8525 63.3301" fill="#E7E7E7"/>
<path d="M44.2761 77.0228C36.3092 77.0228 30.0479 71.0185 30.0479 63.3553V60.5518H35.655V63.3553C35.655 67.8644 39.4399 71.4157 44.2761 71.4157C49.0421 71.4157 52.4765 68.028 52.4765 63.3553V60.5518H58.0837V63.3553C58.1071 71.1587 52.1728 77.0228 44.2761 77.0228Z" fill="#070707"/>
<path d="M44.2759 67.3038C46.392 67.3038 48.1075 65.5883 48.1075 63.4722C48.1075 61.3561 46.392 59.6406 44.2759 59.6406C42.1598 59.6406 40.4443 61.3561 40.4443 63.4722C40.4443 65.5883 42.1598 67.3038 44.2759 67.3038Z" fill="#070707"/>
<path d="M90.0773 73.9143C95.8318 73.9143 100.497 69.2493 100.497 63.4948C100.497 57.7402 95.8318 53.0752 90.0773 53.0752C84.3227 53.0752 79.6577 57.7402 79.6577 63.4948C79.6577 69.2493 84.3227 73.9143 90.0773 73.9143Z" fill="#E7E7E7"/>
<path d="M90.0772 75.8993C83.3216 75.8993 77.8384 70.3186 77.8384 63.4951C77.8384 56.6716 83.3447 51.0908 90.0772 51.0908C96.8097 51.0908 102.316 56.6716 102.316 63.4951C102.316 70.3186 96.8329 75.8993 90.0772 75.8993ZM90.0772 55.0536C85.4963 55.0536 81.7715 58.8288 81.7715 63.4716C81.7715 68.1144 85.4963 71.8896 90.0772 71.8896C94.6581 71.8896 98.383 68.1144 98.383 63.4716C98.383 58.8288 94.6812 55.0536 90.0772 55.0536Z" fill="#070707"/>
<path d="M101.158 63.3301C101.158 69.6213 96.343 74.2458 90.0411 74.2458C83.7157 74.2458 78.4995 69.6213 78.4995 63.3301" fill="#E7E7E7"/>
<path d="M90.068 77.0228C82.1012 77.0228 75.8398 71.0185 75.8398 63.3553V60.5518H81.447V63.3553C81.447 67.8644 85.2319 71.4157 90.068 71.4157C94.8341 71.4157 98.2685 68.028 98.2685 63.3553V60.5518H103.876V63.3553C103.899 71.1587 97.9648 77.0228 90.068 77.0228Z" fill="#070707"/>
<path d="M90.0684 67.3038C92.1845 67.3038 93.9 65.5883 93.9 63.4722C93.9 61.3561 92.1845 59.6406 90.0684 59.6406C87.9523 59.6406 86.2368 61.3561 86.2368 63.4722C86.2368 65.5883 87.9523 67.3038 90.0684 67.3038Z" fill="#070707"/>
<path d="M90.9038 17.5164L86.4201 5.51072C86.0698 4.56955 84.9256 3.78906 83.898 3.78906H32.1488C31.1212 3.78906 29.9536 4.54659 29.58 5.48776L24.5825 17.5164" fill="#E7E7E7"/>
<path d="M90.8157 20.3909C89.6709 20.3909 88.5962 19.69 88.1756 18.5452L83.7132 6.41967L83.6899 6.39631H32.1273C32.1039 6.41967 32.0572 6.44303 32.0338 6.4664L27.0574 18.6386C26.4734 20.0638 24.8379 20.7647 23.4128 20.1806C21.9876 19.5965 21.2867 17.9611 21.8708 16.5359L26.8705 4.29362C27.6882 2.28438 29.861 0.8125 32.0338 0.8125H83.8067C86.0262 0.8125 88.1756 2.33111 88.9466 4.41043L93.4323 16.6294C93.9697 18.0779 93.2221 19.69 91.7736 20.2273C91.4698 20.3441 91.1427 20.3909 90.8157 20.3909Z" fill="#070707"/>
<path d="M88.9464 20.5079H24.4639C23.3658 20.5079 22.478 19.6201 22.478 18.522C22.478 17.4239 23.3658 16.5361 24.4639 16.5361H88.9464C90.0444 16.5361 90.9323 17.4239 90.9323 18.522C90.9323 19.6201 90.0444 20.5079 88.9464 20.5079Z" fill="#070707"/>
<path d="M55.8975 28.6309V47.6507" stroke="#070707" stroke-width="3" stroke-linecap="round" stroke-linejoin="round"/>
<path d="M51.5977 43.5166H64.3327" stroke="#070707" stroke-width="3" stroke-linecap="round" stroke-linejoin="round"/>
<path d="M55.861 28.6309H61.1903C67.5853 28.6309 67.5853 37.0657 61.1903 37.0657H51.5977" stroke="#070707" stroke-width="3" stroke-linecap="round" stroke-linejoin="round"/>
</svg>
