<svg width="99" height="97" viewBox="0 0 99 97" fill="none" xmlns="http://www.w3.org/2000/svg">
<path d="M95.7672 45.9198C95.7672 47.6173 94.378 49.0061 92.6802 49.0061H27.8526C26.1548 49.0061 24.7656 47.6173 24.7656 45.9198V5.83631C24.7656 4.13884 26.1548 2.75 27.8526 2.75H92.6802C94.378 2.75 95.7672 4.13884 95.7672 5.83631V45.9198Z" fill="#E7E7E7"/>
<path d="M92.6294 51.3671H27.8031C24.8319 51.3671 22.4009 48.9361 22.4009 45.9649V5.8729C22.4009 2.90169 24.8319 0.470703 27.8031 0.470703H92.6294C95.6006 0.470703 98.0316 2.90169 98.0316 5.8729V45.9649C98.0316 48.9361 95.6006 51.3671 92.6294 51.3671ZM27.8031 5.10116C27.3786 5.10116 27.0313 5.44844 27.0313 5.8729V45.9649C27.0313 46.3894 27.3786 46.7366 27.8031 46.7366H92.6294C93.0539 46.7366 93.4012 46.3894 93.4012 45.9649V5.8729C93.4012 5.44844 93.0539 5.10116 92.6294 5.10116H27.8031Z" fill="#070707"/>
<path d="M96.4878 9.73145H24.7158V18.9924H96.4878V9.73145Z" fill="#070707"/>
<path d="M89.6215 22.8057H50.1582V30.5689H89.6215V22.8057Z" fill="white"/>
<path d="M91.2385 32.1855H48.5405V21.1875H91.2385V32.1855ZM51.825 28.9054H87.954V24.4676H51.825V28.9054Z" fill="#070707"/>
<path d="M80.2413 35.9062V74.4642L2.28516 74.5608V35.9062H80.2413Z" fill="white"/>
<path d="M2.37801 75.2076C2.22369 75.2076 2.06937 75.1497 1.97292 75.0338C1.85719 74.9179 1.79932 74.7827 1.79932 74.6282V36.0003C1.79932 35.672 2.05008 35.4209 2.37801 35.4209H80.3089C80.6368 35.4209 80.8876 35.672 80.8876 36.0003V74.5317C80.8876 74.86 80.6368 75.1111 80.3089 75.1111L2.37801 75.2076ZM2.95671 36.5797V74.0488L79.7302 73.9522V36.5797H2.95671Z" fill="#070707"/>
<path opacity="0.5" d="M51.5334 96.7184C71.8545 96.7184 88.3281 92.6272 88.3281 87.5804C88.3281 82.5336 71.8545 78.4424 51.5334 78.4424C31.2123 78.4424 14.7388 82.5336 14.7388 87.5804C14.7388 92.6272 31.2123 96.7184 51.5334 96.7184Z" fill="#E7E7E7"/>
<path d="M89.6217 45.9346V84.4925L12.3125 84.5892V45.9346H89.6217Z" fill="#E7E7E7"/>
<path d="M12.3366 86.2047C11.8924 86.2047 11.4867 86.031 11.1777 85.7221C10.8687 85.4133 10.6948 84.9886 10.6948 84.5639V45.9563C10.6948 45.049 11.4288 44.3154 12.3366 44.3154H89.597C90.5048 44.3154 91.2387 45.049 91.2387 45.9563V84.4674C91.2387 85.3747 90.5048 86.1082 89.597 86.1082L12.3366 86.2047ZM13.9784 47.5971V82.9231L87.9552 82.8266V47.5971H13.9784Z" fill="#070707"/>
<path d="M48.2981 76.0157C54.4167 76.0157 59.3769 71.0193 59.3769 64.856C59.3769 58.6927 54.4167 53.6963 48.2981 53.6963C42.1794 53.6963 37.2192 58.6927 37.2192 64.856C37.2192 71.0193 42.1794 76.0157 48.2981 76.0157Z" fill="#070707"/>
<path d="M11.6002 86.2054C10.9826 86.2054 10.4036 85.9542 9.95972 85.529C9.51583 85.0845 9.28424 84.5048 9.28424 83.8864V76.9294H2.33644C1.06268 76.9294 0.0205078 75.8859 0.0205078 74.6104V35.9606C0.0205078 34.6851 1.06268 33.6416 2.33644 33.6416H80.3062C81.5799 33.6416 82.6221 34.6851 82.6221 35.9606V42.9176H89.5699C90.8437 42.9176 91.8858 43.9611 91.8858 45.2366V83.7898C91.8858 85.0652 90.8437 86.1088 89.5699 86.1088L11.6002 86.2054ZM4.65237 72.2915H11.6002C12.8739 72.2915 13.9161 73.335 13.9161 74.6104V81.5674L87.254 81.4708V47.5555H80.3062C79.0324 47.5555 77.9902 46.512 77.9902 45.2366V38.2796H4.65237V72.2915Z" fill="#070707"/>
</svg>
