<svg width="88" height="94" viewBox="0 0 88 94" fill="none" xmlns="http://www.w3.org/2000/svg">
<path opacity="0.5" d="M42.9309 93.4182C64.9938 93.4182 82.8794 89.0011 82.8794 83.5523C82.8794 78.1036 64.9938 73.6865 42.9309 73.6865C20.868 73.6865 2.98242 78.1036 2.98242 83.5523C2.98242 89.0011 20.868 93.4182 42.9309 93.4182Z" fill="#E7E7E7"/>
<path d="M25.4915 22.5857C28.7546 19.3147 34.0467 19.3566 37.2679 22.6277L82.0937 68.3383C85.3149 71.6303 85.294 76.9981 82.0518 80.2482L81.2151 81.0869C77.952 84.3579 72.6181 84.3789 69.3341 81.1288L23.7344 36.215C20.4504 32.9859 20.4295 27.66 23.6926 24.41L25.4915 22.5857Z" fill="#E7E7E7"/>
<path d="M75.2666 86.0518C72.3575 86.0518 69.6368 84.9426 67.5858 82.9125L21.9613 38.0833C19.8894 36.0532 18.7383 33.3325 18.7383 30.4025C18.7383 27.4934 19.8475 24.7727 21.8985 22.7217L23.6984 20.9009C25.7494 18.8499 28.4701 17.7197 31.3583 17.7197C34.2883 17.7197 37.009 18.8708 39.06 20.9427L83.9101 66.5672C88.1168 70.8367 88.0749 77.764 83.8473 81.9916L83.0102 82.8288C80.9382 84.9007 78.1966 86.0518 75.2666 86.0518ZM31.3373 22.7635C29.7886 22.7635 28.3445 23.3705 27.2562 24.4588L25.4564 26.2795L25.4355 26.3005C24.3472 27.3888 23.7402 28.8538 23.7402 30.4025C23.7402 31.9721 24.3681 33.4162 25.4564 34.5045L71.0808 79.3337C72.1901 80.422 73.676 81.0289 75.2456 81.0289C76.8362 81.0289 78.3222 80.422 79.4314 79.3128L80.2685 78.4756C82.5497 76.1944 82.5707 72.4482 80.2895 70.1251L35.4393 24.5006C34.372 23.3705 32.907 22.7635 31.3373 22.7635Z" fill="#070707"/>
<path opacity="0.2" d="M70.7572 60.7289L65.2373 55.209L56.2695 64.1768L61.7894 69.6967L70.7572 60.7289Z" fill="#E7E7E7"/>
<path d="M36.1378 68.3498C54.2705 68.3498 68.97 53.6504 68.97 35.5177C68.97 17.385 54.2705 2.68555 36.1378 2.68555C18.0051 2.68555 3.30566 17.385 3.30566 35.5177C3.30566 53.6504 18.0051 68.3498 36.1378 68.3498Z" fill="white"/>
<path d="M36.1377 70.7757C16.6137 70.7757 0.717773 54.9161 0.717773 35.4367C0.717773 15.9573 16.6137 0.0976562 36.1377 0.0976562C55.6616 0.0976562 71.5576 15.9573 71.5576 35.4367C71.5576 54.9161 55.6616 70.7757 36.1377 70.7757ZM36.1377 5.11919C19.3819 5.11919 5.7508 18.7192 5.7508 35.4367C5.7508 52.1542 19.3819 65.7542 36.1377 65.7542C52.8935 65.7542 66.5246 52.1542 66.5246 35.4367C66.5246 18.7192 52.8935 5.11919 36.1377 5.11919Z" fill="#070707"/>
<path d="M36.2182 56.5429C47.8749 56.5429 57.3246 47.0932 57.3246 35.4365C57.3246 23.7797 47.8749 14.3301 36.2182 14.3301C24.5615 14.3301 15.1118 23.7797 15.1118 35.4365C15.1118 47.0932 24.5615 56.5429 36.2182 56.5429Z" fill="#E7E7E7"/>
<path d="M15.6616 44.6339L48.0592 12.2363L54.2541 18.4312L18.4242 54.282L15.6616 44.6339Z" fill="white"/>
<path d="M55.18 24.1857L24.8579 54.5078L27.6105 57.2604L57.9326 26.9382L55.18 24.1857Z" fill="white"/>
<path d="M36.7846 58.16C24.2107 58.16 13.98 47.9293 13.98 35.3554C13.98 22.7815 24.2107 12.5508 36.7846 12.5508C49.3585 12.5508 59.5892 22.7815 59.5892 35.3554C59.5892 36.2759 58.836 37.0291 57.9154 37.0291C56.9949 37.0291 56.2417 36.2759 56.2417 35.3554C56.2417 24.6226 47.5174 15.8982 36.7846 15.8982C26.0518 15.8982 17.3274 24.6226 17.3274 35.3554C17.3274 46.0882 26.0518 54.8125 36.7846 54.8125C37.7051 54.8125 38.4583 55.5657 38.4583 56.4862C38.4583 57.4068 37.7051 58.16 36.7846 58.16Z" fill="#070707"/>
</svg>
