<svg width="92" height="103" viewBox="0 0 92 103" fill="none" xmlns="http://www.w3.org/2000/svg">
<path opacity="0.5" d="M45.8854 102.326C67.5017 102.326 85.0252 98.0171 85.0252 92.7023C85.0252 87.3876 67.5017 83.0791 45.8854 83.0791C24.2691 83.0791 6.74561 87.3876 6.74561 92.7023C6.74561 98.0171 24.2691 102.326 45.8854 102.326Z" fill="#E7E7E7"/>
<path d="M61.7353 87.2034C61.7353 90.6488 58.9835 93.4301 55.5745 93.4301H36.6813C33.2723 93.4301 30.5205 90.6488 30.5205 87.2034C30.5205 83.7579 33.2723 80.9766 36.6813 80.9766H55.5745C58.9835 80.9766 61.7353 83.7579 61.7353 87.2034Z" fill="white"/>
<path d="M55.5547 95.6947H36.7016C31.9473 95.6947 28.0947 91.8577 28.0947 87.1227C28.0947 82.3877 31.9473 78.5508 36.7016 78.5508H55.5547C60.309 78.5508 64.1616 82.3877 64.1616 87.1227C64.1616 91.8577 60.309 95.6947 55.5547 95.6947ZM36.7016 83.449C34.6728 83.449 33.0129 85.1022 33.0129 87.1227C33.0129 89.1433 34.6728 90.7964 36.7016 90.7964H55.5547C57.5835 90.7964 59.2434 89.1433 59.2434 87.1227C59.2434 85.1022 57.5835 83.449 55.5547 83.449H36.7016Z" fill="#070707"/>
<path d="M89.3924 54.0158C89.3924 58.5252 85.719 62.2148 81.2293 62.2148H11.0273C6.53762 62.2148 2.86426 58.5252 2.86426 54.0158V11.3807C2.86426 6.87121 6.53762 3.18164 11.0273 3.18164H81.2293C85.719 3.18164 89.3924 6.87121 89.3924 11.3807V54.0158Z" fill="#E7E7E7"/>
<path d="M81.3358 64.6411H10.9205C5.04577 64.6411 0.276367 59.8702 0.276367 53.9935V11.4034C0.276367 5.52678 5.04577 0.755859 10.9205 0.755859H81.3358C87.2106 0.755859 91.98 5.52678 91.98 11.4034V53.9935C91.98 59.8702 87.2106 64.6411 81.3358 64.6411ZM10.9205 5.67011C7.76822 5.67011 5.18906 8.25009 5.18906 11.4034V53.9935C5.18906 57.1469 7.76822 59.7268 10.9205 59.7268H81.3358C84.4881 59.7268 87.0673 57.1469 87.0673 53.9935V11.4034C87.0673 8.25009 84.4881 5.67011 81.3358 5.67011H10.9205Z" fill="#070707"/>
<path d="M50.2223 68.8467L52.6786 85.8288H39.5781L42.0345 68.8467H50.2223Z" fill="white"/>
<path d="M52.6571 88.4164H39.6045C38.8907 88.4164 38.2177 88.1087 37.7486 87.5753C37.2795 87.0418 37.0756 86.3238 37.1775 85.6057L39.6249 68.372C39.8084 67.1615 40.8282 66.2588 42.0519 66.2588H50.2097C51.4334 66.2588 52.4531 67.1615 52.6367 68.372L55.0636 85.4621C55.1044 85.6262 55.1044 85.7904 55.1044 85.9545C55.1044 87.3086 54.0031 88.4164 52.6571 88.4164ZM42.419 83.4925H49.8222L48.0683 71.1827H44.1525L42.419 83.4925Z" fill="#070707"/>
<path d="M48.7735 69.6553L50.091 77.742H42.166L43.5035 69.6553H48.7735Z" fill="#E7E7E7"/>
<path d="M88.5836 61.4552C88.5836 65.9647 84.9096 69.6543 80.4191 69.6543H11.8373C7.34687 69.6543 3.67285 65.9647 3.67285 61.4552V18.8201C3.67285 14.3107 7.34687 10.6211 11.8373 10.6211H80.4191C84.9096 10.6211 88.5836 14.3107 88.5836 18.8201V61.4552Z" fill="white"/>
<path d="M80.5176 71.1894H11.7399C6.31551 71.1894 1.91455 66.7884 1.91455 61.364V18.7873C1.91455 13.3629 6.31551 8.96191 11.7399 8.96191H80.5176C85.9421 8.96191 90.343 13.3629 90.343 18.7873V61.364C90.343 66.7884 85.9421 71.1894 80.5176 71.1894ZM11.7399 12.237C8.1373 12.237 5.18968 15.1847 5.18968 18.7873V61.364C5.18968 64.9666 8.1373 67.9142 11.7399 67.9142H80.5176C84.1203 67.9142 87.0679 64.9666 87.0679 61.364V18.7873C87.0679 15.1847 84.1203 12.237 80.5176 12.237H11.7399Z" fill="#070707"/>
<path d="M45.7193 64.6388C46.8498 64.6388 47.7663 63.7224 47.7663 62.5919C47.7663 61.4614 46.8498 60.5449 45.7193 60.5449C44.5888 60.5449 43.6724 61.4614 43.6724 62.5919C43.6724 63.7224 44.5888 64.6388 45.7193 64.6388Z" fill="#070707"/>
<path d="M80.6583 18.709H11.7593V56.3932H80.6583V18.709Z" fill="#E7E7E7"/>
<path d="M80.5168 58.0885H11.7391C10.8385 58.0885 10.1016 57.3516 10.1016 56.451V18.787C10.1016 17.8863 10.8385 17.1494 11.7391 17.1494H80.5168C81.4175 17.1494 82.1544 17.8863 82.1544 18.787V56.451C82.1544 57.3516 81.4175 58.0885 80.5168 58.0885ZM13.3767 54.8134H78.8793V20.4245H13.3767V54.8134Z" fill="#070707"/>
<path d="M81.3358 72.0081H10.9205C5.04577 72.0081 0.276367 67.2387 0.276367 61.3639V11.4796C0.276367 10.1286 1.38172 9.02325 2.73271 9.02325C4.0837 9.02325 5.18906 10.1286 5.18906 11.4796V61.3639C5.18906 64.5162 7.76822 67.0954 10.9205 67.0954H81.3358C84.4881 67.0954 87.0673 64.5162 87.0673 61.3639V11.3772C87.0673 10.0263 88.1726 8.9209 89.5236 8.9209C90.8746 8.9209 91.98 10.0263 91.98 11.3772V61.3639C91.98 67.2387 87.2106 72.0081 81.3358 72.0081Z" fill="#070707"/>
<path d="M52.6784 88.3831H39.5779C38.8614 88.3831 38.1859 88.076 37.7151 87.5233C37.2443 86.9911 37.0396 86.2542 37.142 85.5583L39.5983 69.1826C39.7826 67.9749 40.806 67.0947 42.0342 67.0947H50.222C51.4297 67.0947 52.4737 67.9749 52.6579 69.1826L55.0938 85.415C55.1347 85.5787 55.1552 85.7425 55.1552 85.9267C55.1347 87.2777 54.0294 88.3831 52.6784 88.3831ZM42.4231 83.4704H49.8126L48.0932 72.0074H44.1426L42.4231 83.4704Z" fill="#070707"/>
<path d="M37.3423 46.5555H20.9955C20.0964 46.5555 19.3608 45.8199 19.3608 44.9208C19.3608 44.0217 20.0964 43.2861 20.9955 43.2861H37.3423C38.2413 43.2861 38.977 44.0217 38.977 44.9208C38.977 45.8199 38.2413 46.5555 37.3423 46.5555Z" fill="#070707"/>
<path d="M29.9862 39.199H20.9955C20.0964 39.199 19.3608 38.4634 19.3608 37.5644C19.3608 36.6653 20.0964 35.9297 20.9955 35.9297H29.9862C30.8853 35.9297 31.6209 36.6653 31.6209 37.5644C31.6209 38.4634 30.8853 39.199 29.9862 39.199Z" fill="#070707"/>
<path d="M40.6115 39.199H35.7074C34.8084 39.199 34.0728 38.4634 34.0728 37.5644C34.0728 36.6653 34.8084 35.9297 35.7074 35.9297H40.6115C41.5105 35.9297 42.2461 36.6653 42.2461 37.5644C42.2461 38.4634 41.5105 39.199 40.6115 39.199Z" fill="#070707"/>
<path d="M40.6116 31.8436H20.9955C20.0964 31.8436 19.3608 31.108 19.3608 30.2089C19.3608 29.3098 20.0964 28.5742 20.9955 28.5742H40.6116C41.5107 28.5742 42.2463 29.3098 42.2463 30.2089C42.2463 31.108 41.5107 31.8436 40.6116 31.8436Z" fill="#070707"/>
<path d="M68.0718 46.5555H51.725C50.8259 46.5555 50.0903 45.8199 50.0903 44.9208C50.0903 44.0217 50.8259 43.2861 51.725 43.2861H68.0718C68.9708 43.2861 69.7064 44.0217 69.7064 44.9208C69.7064 45.8199 68.9708 46.5555 68.0718 46.5555Z" fill="#070707"/>
<path d="M60.7157 39.199H51.725C50.8259 39.199 50.0903 38.4634 50.0903 37.5644C50.0903 36.6653 50.8259 35.9297 51.725 35.9297H60.7157C61.6148 35.9297 62.3504 36.6653 62.3504 37.5644C62.3504 38.4634 61.6148 39.199 60.7157 39.199Z" fill="#070707"/>
<path d="M71.341 39.199H66.4369C65.5379 39.199 64.8022 38.4634 64.8022 37.5644C64.8022 36.6653 65.5379 35.9297 66.4369 35.9297H71.341C72.24 35.9297 72.9756 36.6653 72.9756 37.5644C72.9756 38.4634 72.24 39.199 71.341 39.199Z" fill="#070707"/>
<path d="M71.3411 31.8436H51.725C50.8259 31.8436 50.0903 31.108 50.0903 30.2089C50.0903 29.3098 50.8259 28.5742 51.725 28.5742H71.3411C72.2402 28.5742 72.9758 29.3098 72.9758 30.2089C72.9758 31.108 72.2402 31.8436 71.3411 31.8436Z" fill="#070707"/>
</svg>
