<svg width="90" height="106" viewBox="0 0 90 106" fill="none" xmlns="http://www.w3.org/2000/svg">
<path opacity="0.5" d="M45.0537 105.094C69.4364 105.094 89.2026 100.184 89.2026 94.1281C89.2026 88.0718 69.4364 83.1621 45.0537 83.1621C20.6709 83.1621 0.904785 88.0718 0.904785 94.1281C0.904785 100.184 20.6709 105.094 45.0537 105.094Z" fill="#E7E7E7"/>
<path d="M16.2148 22.4185L8.88902 87.4865C8.7501 89.4927 10.3013 91.1341 12.3388 91.1341H79.8062C81.8436 91.1341 83.3717 89.4927 83.2096 87.4865L74.5341 21.1367" fill="white"/>
<path d="M79.8562 93.9828H12.2676C10.5048 93.9828 8.88117 93.4015 7.69825 92.3359C6.51533 91.2703 5.91228 89.8753 6.05144 88.4028L10.412 33.0093C10.5048 31.7305 11.8269 30.7618 13.3809 30.8393C14.9117 30.9168 16.0714 32.0405 15.9787 33.3193L11.5949 88.7128C11.5717 88.9453 11.6877 89.0809 11.7573 89.1584C11.8501 89.2359 12.0124 89.3328 12.2676 89.3328H79.8562C80.0649 89.3328 80.2273 89.2746 80.3433 89.1778C80.4361 89.1003 80.5288 88.9646 80.5056 88.7515L75.2405 32.5443C75.1245 31.2655 76.2611 30.1418 77.7919 30.0449C79.3227 29.948 80.668 30.8974 80.784 32.1761L86.0491 88.3834C86.1883 89.8365 85.6084 91.2896 84.4255 92.3359C83.2426 93.4015 81.619 93.9828 79.8562 93.9828Z" fill="#070707"/>
<path d="M29.8865 42.146C25.2811 42.146 21.5552 38.4201 21.5552 33.8147C21.5552 29.2094 25.2811 25.4834 29.8865 25.4834C34.4919 25.4834 38.2178 29.2094 38.2178 33.8147C38.2178 38.4201 34.4919 42.146 29.8865 42.146ZM29.8865 29.1862C27.3408 29.1862 25.258 31.269 25.258 33.8147C25.258 36.3604 27.3408 38.4432 29.8865 38.4432C32.4322 38.4432 34.515 36.3604 34.515 33.8147C34.515 31.269 32.4322 29.1862 29.8865 29.1862Z" fill="#070707"/>
<path d="M60.5251 42.1215C55.9141 42.1215 52.1836 38.391 52.1836 33.78C52.1836 29.169 55.9141 25.4385 60.5251 25.4385C65.1361 25.4385 68.8666 29.169 68.8666 33.78C68.8666 38.391 65.1361 42.1215 60.5251 42.1215ZM60.5251 29.1458C57.9763 29.1458 55.8909 31.2312 55.8909 33.78C55.8909 36.3288 57.9763 38.4141 60.5251 38.4141C63.0739 38.4141 65.1593 36.3288 65.1593 33.78C65.1593 31.2312 63.0739 29.1458 60.5251 29.1458Z" fill="#070707"/>
<path opacity="0.2" d="M22.5246 20.7295L18.8173 90.242L7.69531 89.3151L13.5794 27.5446L22.5246 20.7295Z" fill="#070707"/>
<path d="M78.1349 35.1842C77.0227 35.1842 75.9568 34.5123 75.5398 33.4001L71.6239 23.1122C71.6007 23.0891 71.5775 23.0659 71.5544 23.0659H20.7408C20.6712 23.0891 20.6017 23.1354 20.5554 23.1817L15.7822 33.5854C15.1334 34.9757 13.4883 35.6013 12.098 34.9525C10.7078 34.3037 10.0822 32.6586 10.731 31.2684L15.5273 20.8183C16.3846 18.9183 18.5627 17.5049 20.6712 17.5049H71.6471C73.8251 17.5049 75.98 18.9878 76.7678 21.0037L80.73 31.4305C81.2861 32.8671 80.5447 34.4659 79.1312 35.022C78.8068 35.1147 78.4593 35.1842 78.1349 35.1842Z" fill="#070707"/>
<path d="M45.232 0.128523C54.6857 0.128524 62.3784 7.82124 62.3784 17.2749L62.3784 33.0311C62.3784 34.0506 61.5443 34.8848 60.5248 34.8848C59.5052 34.8848 58.6711 34.0506 58.6711 33.0311L58.6711 17.2749C58.6711 9.86027 52.6467 3.83586 45.232 3.83586C37.8173 3.83586 31.7929 9.86027 31.7929 17.2749L31.7929 33.0311C31.7929 34.0506 30.9588 34.8848 29.9393 34.8848C28.9197 34.8848 28.0856 34.0506 28.0856 33.0311L28.0856 17.2749C28.0856 7.82123 35.7783 0.128522 45.232 0.128523Z" fill="#070707"/>
<path d="M33.8622 47.1939L19.771 61.3306L33.8623 75.3311L33.8622 66.2546L61.9994 66.2546L61.9994 56.2704L33.8622 56.2704L33.8622 47.1939Z" fill="#E7E7E7"/>
<path d="M64.0423 56.2696L64.0423 66.2538C64.0423 67.3884 63.1346 68.296 62.0001 68.296L35.9052 68.296L35.9052 75.3303C35.9052 76.1472 35.406 76.896 34.6571 77.2137C33.8856 77.5313 33.0234 77.3498 32.4334 76.7825L18.3422 62.782C17.9564 62.3963 17.7295 61.8744 17.7295 61.3298C17.7295 60.7852 17.9337 60.2633 18.3195 59.8776L32.4107 45.7409C33.0007 45.151 33.863 44.9694 34.6345 45.2871C35.406 45.6048 35.9052 46.3536 35.9052 47.1705L35.9052 54.2047L62.0001 54.2047C63.1346 54.2274 64.0423 55.1351 64.0423 56.2696ZM59.9579 64.2116L59.9579 58.3119L33.863 58.3119C32.7284 58.3119 31.8207 57.4042 31.8207 56.2697L31.8207 52.1398L22.6535 61.3298L31.8207 70.429L31.8207 66.2538C31.8207 65.1192 32.7284 64.2116 33.863 64.2116L59.9579 64.2116Z" fill="#070707"/>
<path d="M56.5541 100.473L70.1689 86.4722L56.5541 72.3355L56.5541 81.412L28.417 81.412L28.417 91.3962L56.5541 91.3962L56.5541 100.473Z" fill="#E7E7E7"/>
<path d="M72.2108 86.471C72.2108 86.9929 72.0293 87.4921 71.6435 87.9005L58.0288 101.901C57.4388 102.491 56.5765 102.673 55.805 102.378C55.0335 102.083 54.5343 101.311 54.5343 100.494L54.5343 93.4599L28.4167 93.4599C27.2822 93.4599 26.3745 92.5523 26.3745 91.4177L26.3745 81.4336C26.3745 80.299 27.2822 79.3913 28.4167 79.3913L54.5116 79.3913L54.5116 72.3571C54.5116 71.5175 55.0108 70.7687 55.7823 70.4737C56.5538 70.156 57.4388 70.3602 58.0061 70.9502L71.6208 85.0868C72.0293 85.4499 72.2108 85.9491 72.2108 86.471ZM58.5961 95.434L67.3322 86.4483L58.5961 77.3945L58.5961 81.4109C58.5961 82.5454 57.6884 83.4531 56.5538 83.4531L30.4589 83.4531L30.4589 89.3528L56.5538 89.3528C57.6884 89.3528 58.5961 90.2604 58.5961 91.395L58.5961 95.434Z" fill="#070707"/>
</svg>
