<svg width="90" height="99" viewBox="0 0 90 99" fill="none" xmlns="http://www.w3.org/2000/svg">
<path d="M84.7351 31.4387L81.4308 22.8602C81.1217 22.068 80.1748 21.4111 79.3246 21.4111H11.0552C10.205 21.4111 9.23885 22.0487 8.89103 22.8216L5.16162 31.4387" fill="#E7E7E7"/>
<path d="M84.8345 33.5349C83.9047 33.5349 83.0137 32.9797 82.665 32.0607L79.3913 23.6367C79.372 23.6176 79.3526 23.5984 79.3332 23.5984H11.0322C10.9934 23.6176 10.9353 23.6559 10.8966 23.6941L7.19677 32.1564C6.69313 33.3243 5.31782 33.8604 4.1362 33.3434C2.95459 32.8457 2.41221 31.4863 2.93522 30.3185L6.67376 21.7796C6.67376 21.7605 6.67376 21.7605 6.69313 21.7413C7.40985 20.1522 9.23069 18.9844 10.9741 18.9844H79.4107C81.2316 18.9844 83.033 20.2097 83.6916 21.8753L87.004 30.395C87.4689 31.5821 86.8684 32.9031 85.6674 33.3626C85.3963 33.4775 85.1057 33.5349 84.8345 33.5349Z" fill="#070707"/>
<path opacity="0.5" d="M45.0295 98.7196C69.5488 98.7196 89.4257 93.7956 89.4257 87.7216C89.4257 81.6476 69.5488 76.7236 45.0295 76.7236C20.5101 76.7236 0.633301 81.6476 0.633301 87.7216C0.633301 93.7956 20.5101 98.7196 45.0295 98.7196Z" fill="#E7E7E7"/>
<path d="M81.6625 83.8217C81.6625 85.5217 80.2688 86.9126 78.5654 86.9126H11.9789C10.2755 86.9126 8.88184 85.5217 8.88184 83.8217V41.3214C8.88184 39.6214 10.2755 38.2305 11.9789 38.2305H78.5654C80.2688 38.2305 81.6625 39.6214 81.6625 41.3214V83.8217Z" fill="white"/>
<path d="M78.6657 89.5004H12.0406C9.05801 89.5004 6.61768 87.0638 6.61768 84.0858V41.5425C6.61768 38.5645 9.05801 36.1279 12.0406 36.1279H78.6657C81.6483 36.1279 84.0886 38.5645 84.0886 41.5425V84.0858C84.0886 87.0638 81.6483 89.5004 78.6657 89.5004ZM12.0406 40.769C11.6146 40.769 11.2659 41.1171 11.2659 41.5425V84.0858C11.2659 84.5112 11.6146 84.8593 12.0406 84.8593H78.6657C79.0917 84.8593 79.4404 84.5112 79.4404 84.0858V41.5425C79.4404 41.1171 79.0917 40.769 78.6657 40.769H12.0406Z" fill="#070707"/>
<path d="M79.5597 60.0645H11.3076V66.3721H79.5597V60.0645Z" fill="#E7E7E7"/>
<path d="M5.16162 31.4385V54.6997C5.16162 56.4056 6.55223 57.8012 8.25185 57.8012H81.6449C83.3445 57.8012 84.7351 56.4056 84.7351 54.6997V31.4385" fill="white"/>
<path d="M81.6876 60.0284H8.17365C5.1944 60.0284 2.75684 57.5909 2.75684 54.6116V31.3967C2.75684 30.1199 3.80151 29.0752 5.07833 29.0752C6.35515 29.0752 7.39982 30.1199 7.39982 31.3967V54.6116C7.39982 55.0372 7.74805 55.3854 8.17365 55.3854H81.6876C82.1132 55.3854 82.4614 55.0372 82.4614 54.6116V31.3967C82.4614 30.1199 83.5061 29.0752 84.7829 29.0752C86.0597 29.0752 87.1044 30.1199 87.1044 31.3967V54.6116C87.1044 57.5909 84.6668 60.0284 81.6876 60.0284Z" fill="#070707"/>
<path d="M84.7825 34.4918H5.07794C4.22672 34.4918 3.53027 33.7954 3.53027 32.9441C3.53027 32.0929 4.22672 31.3965 5.07794 31.3965H84.7825C85.6337 31.3965 86.3302 32.0929 86.3302 32.9441C86.3302 33.7954 85.6337 34.4918 84.7825 34.4918Z" fill="#070707"/>
<path d="M49.9626 25.292H39.9351V86.266H49.9626V25.292Z" fill="#E7E7E7"/>
<path d="M49.8956 88.0452H40.0012C39.164 88.0452 38.479 87.3472 38.479 86.4941V25.2259C38.479 24.3728 39.164 23.6748 40.0012 23.6748H49.8956C50.7328 23.6748 51.4178 24.3728 51.4178 25.2259V86.4941C51.4178 87.3472 50.7328 88.0452 49.8956 88.0452ZM41.5234 84.943H48.3734V26.777H41.5234V84.943Z" fill="#070707"/>
<path d="M64.1693 15.8307C61.1356 18.8812 44.625 24.3215 44.625 24.3215C44.625 24.3215 50.0702 7.82563 53.1234 4.77516C56.1766 1.72469 61.1161 1.72469 64.1693 4.77516C67.2225 7.82563 67.2225 12.7802 64.1693 15.8307Z" fill="#E7E7E7"/>
<path d="M44.5197 26.7475C43.9201 26.7475 43.3205 26.5154 42.8756 26.0706C42.2567 25.4516 42.0439 24.5426 42.3147 23.7109C43.2431 20.887 48.0593 6.59346 51.3281 3.34405C53.243 1.42922 55.7768 0.384766 58.4654 0.384766C61.1539 0.384766 63.6878 1.42922 65.6026 3.34405C67.5175 5.25888 68.562 7.79264 68.562 10.4811C68.562 13.1696 67.5175 15.7227 65.6026 17.6182C62.3725 20.887 48.0787 25.7031 45.2547 26.6315C45.0033 26.7088 44.7712 26.7475 44.5197 26.7475ZM58.4654 5.00744C57.0147 5.00744 55.6414 5.56835 54.6163 6.6128C53.1656 8.06343 50.4384 14.6976 48.2721 20.6742C54.2488 18.508 60.8832 15.7808 62.3145 14.3495C63.3589 13.305 63.9199 11.9511 63.9199 10.4811C63.9199 9.03051 63.3589 7.65725 62.3145 6.6128C61.2893 5.58769 59.9161 5.00744 58.4654 5.00744Z" fill="#070707"/>
<path d="M36.943 5.04951C39.9935 8.05713 45.4338 24.3213 45.4338 24.3213C45.4338 24.3213 28.9379 18.9574 25.8875 15.9497C22.837 12.9421 22.837 8.07628 25.8875 5.06866C28.9574 2.06104 33.8925 2.06104 36.943 5.04951Z" fill="#E7E7E7"/>
<path d="M45.393 26.7282C45.1433 26.7282 44.9128 26.6895 44.6631 26.6122C41.8586 25.6845 27.6631 20.872 24.436 17.6056C22.5344 15.6922 21.4971 13.1603 21.4971 10.4737C21.4971 7.78721 22.5344 5.25531 24.436 3.34188C26.3377 1.42845 28.8733 0.384766 31.5434 0.384766C34.2134 0.384766 36.7298 1.42845 38.6123 3.32255C41.801 6.53092 46.5071 20.4274 47.5252 23.5585C47.6405 23.8291 47.6981 24.119 47.6981 24.4282C47.6981 25.7038 46.68 26.7282 45.4314 26.7475C45.4122 26.7282 45.4122 26.7282 45.393 26.7282ZM31.5434 5.02338C30.0835 5.02338 28.7196 5.58387 27.6824 6.62756C26.6643 7.65192 26.1072 9.02418 26.1072 10.4737C26.1072 11.9233 26.6643 13.2956 27.7016 14.3199C29.1422 15.7695 35.7309 18.4947 41.6665 20.6594C39.5151 14.6871 36.8066 8.0578 35.3659 6.60823C34.3479 5.58387 33.0032 5.02338 31.5434 5.02338Z" fill="#070707"/>
</svg>
