<svg width="197" height="20" viewBox="0 0 197 20" fill="none" xmlns="http://www.w3.org/2000/svg">
<path d="M16.1007 0.930749L9.40763 10.9507L2.71944 0.930749H0.621094V19.295H2.64082V4.44438L9.33391 14.2531H9.43711L16.1253 4.41489V19.2901H18.1991V0.930749H16.1007ZM38.6862 3.39275C36.9368 1.54011 34.7009 0.616242 31.9686 0.616242C29.2412 0.616242 26.9905 1.54502 25.2214 3.40749C23.4572 5.26996 22.5727 7.50099 22.5727 10.1104C22.5727 12.7346 23.4474 14.9754 25.1968 16.8281C26.9463 18.6856 29.1822 19.6095 31.9145 19.6095C34.6468 19.6095 36.8926 18.6807 38.6568 16.8183C40.4259 14.9558 41.3055 12.7198 41.3055 10.1104C41.3055 7.48625 40.4357 5.2503 38.6862 3.39275ZM37.1235 15.5013C35.7672 16.9608 34.0522 17.693 31.9686 17.693C29.885 17.693 28.1601 16.9559 26.7841 15.4865C25.4131 14.0172 24.7251 12.2235 24.7251 10.1104C24.7251 7.97767 25.4032 6.184 26.7596 4.72449C28.111 3.26498 29.8309 2.53277 31.9145 2.53277C33.9981 2.53277 35.7181 3.26989 37.099 4.73431C38.47 6.20365 39.158 7.99732 39.158 10.1104C39.158 12.2432 38.4799 14.0417 37.1235 15.5013ZM59.198 0.930749V15.6438L47.63 0.930749H45.6889V19.295H47.7087V4.23307L59.5665 19.2901H61.2177V0.930749H59.198ZM65.0999 0.930749V2.84727H71.2672V19.295H73.3655V2.84236H79.5328V0.925835H65.0999V0.930749ZM115.367 15.0393C114.423 15.9288 113.49 16.5971 112.586 17.0345C111.676 17.4768 110.625 17.693 109.436 17.693C107.426 17.693 105.735 16.9608 104.369 15.5013C103.008 14.0417 102.325 12.2432 102.325 10.1104C102.325 7.95801 103.003 6.16434 104.359 4.70974C105.716 3.26006 107.406 2.53277 109.436 2.53277C111.519 2.53277 113.441 3.36818 115.205 5.04882L116.571 3.57949C115.539 2.60157 114.477 1.85953 113.396 1.35828C112.315 0.861951 111.003 0.611328 109.46 0.611328C106.806 0.611328 104.59 1.53028 102.826 3.37801C101.057 5.22082 100.177 7.46168 100.177 10.1055C100.177 12.7837 101.047 15.0344 102.796 16.8625C104.546 18.6906 106.738 19.5997 109.381 19.5997C110.974 19.5997 112.34 19.3392 113.475 18.8183C114.61 18.2876 115.696 17.5161 116.728 16.4841L115.367 15.0393ZM129.898 11.7861C131.402 11.506 132.606 10.9163 133.52 10.0023C134.424 9.09318 134.881 7.90395 134.881 6.43462C134.881 4.93088 134.409 3.70725 133.466 2.75882C132.242 1.53519 130.503 0.920921 128.242 0.920921H120.345V19.2852H122.419V2.84236H128.085C129.554 2.84236 130.704 3.16178 131.535 3.79571C132.365 4.43947 132.783 5.32402 132.783 6.45919C132.783 7.64842 132.34 8.58702 131.471 9.26518C130.596 9.94825 129.456 10.2873 128.06 10.2873H127.662V12.1498L132.989 19.2852H135.53L129.898 11.7861ZM139.5 0.930749V19.295H141.574V0.930749H139.5ZM158.086 11.0146C157.137 10.2038 155.619 9.56986 153.535 9.11284C151.594 8.69022 150.277 8.22337 149.589 7.69756C148.896 7.17174 148.552 6.45427 148.552 5.54515C148.552 4.67043 148.916 3.94805 149.629 3.37801C150.346 2.80796 151.29 2.52785 152.459 2.52785C154.371 2.52785 156.135 3.19127 157.757 4.52301L158.965 2.92099C157.093 1.41725 154.946 0.66047 152.508 0.66047C150.759 0.66047 149.319 1.13714 148.184 2.08066C147.044 3.01927 146.474 4.22324 146.474 5.67292C146.474 7.16191 146.96 8.30692 147.918 9.11284C148.877 9.91385 150.454 10.5527 152.641 11.0294C154.494 11.4127 155.756 11.8648 156.415 12.3906C157.083 12.9164 157.413 13.624 157.413 14.5184C157.413 15.4619 157.034 16.2286 156.282 16.8133C155.53 17.3981 154.543 17.6881 153.319 17.6881C152.081 17.6881 150.965 17.4768 149.973 17.059C148.99 16.6364 148.002 15.9828 147.024 15.0885L145.737 16.6119C147.928 18.5726 150.425 19.5456 153.24 19.5456C155.078 19.5456 156.582 19.0689 157.752 18.1205C158.926 17.1672 159.511 15.9091 159.511 14.3563C159.516 12.9459 159.039 11.8255 158.086 11.0146ZM162.032 0.930749V2.84727H168.199V19.295H170.298V2.84236H176.465V0.925835H162.032V0.930749ZM194.382 3.39275C192.632 1.54011 190.396 0.616242 187.664 0.616242C184.937 0.616242 182.686 1.54502 180.917 3.40749C179.153 5.26996 178.273 7.50099 178.273 10.1104C178.273 12.7346 179.143 14.9754 180.892 16.8281C182.642 18.6856 184.878 19.6095 187.61 19.6095C190.337 19.6095 192.588 18.6807 194.357 16.8183C196.121 14.9558 197.001 12.7198 197.001 10.1104C197.001 7.48625 196.126 5.2503 194.382 3.39275ZM192.819 15.5013C191.468 16.9608 189.748 17.693 187.664 17.693C185.581 17.693 183.856 16.9559 182.48 15.4865C181.104 14.0172 180.421 12.2235 180.421 10.1104C180.421 7.97767 181.099 6.184 182.455 4.72449C183.807 3.26498 185.527 2.53277 187.61 2.53277C189.694 2.53277 191.419 3.26989 192.795 4.73431C194.166 6.20365 194.854 7.99732 194.854 10.1104C194.849 12.2432 194.175 14.0417 192.819 15.5013Z" fill="white"/>
<path d="M96.6833 0.925781H83.4102V2.84231H96.6833V0.925781Z" fill="white"/>
<path d="M96.6833 9.14941H83.4102V11.0659H96.6833V9.14941Z" fill="white"/>
<path d="M96.6833 17.376H83.4102V19.2925H96.6833V17.376Z" fill="white"/>
</svg>
